<mxfile host="65bd71144e">
    <diagram id="Ft-w22thRHWtMl1fQeAE" name="Page-1">
        <mxGraphModel dx="-1049" dy="90" grid="1" gridSize="1" guides="1" tooltips="1" connect="1" arrows="1" fold="1" page="1" pageScale="1" pageWidth="1100" pageHeight="850" math="0" shadow="0">
            <root>
                <mxCell id="0"/>
                <mxCell id="1" parent="0"/>
                <mxCell id="M5zCR2oHDIOOvsmji_0k-1" value="" style="shape=cube;whiteSpace=wrap;html=1;boundedLbl=1;backgroundOutline=1;darkOpacity=0.05;darkOpacity2=0.1;size=10;rotation=90;strokeWidth=2;fillColor=#0000FF;strokeColor=#33001A;" parent="1" vertex="1">
                    <mxGeometry x="1609.5" y="291.25" width="30" height="25" as="geometry"/>
                </mxCell>
                <mxCell id="M5zCR2oHDIOOvsmji_0k-2" value="" style="shape=cube;whiteSpace=wrap;html=1;boundedLbl=1;backgroundOutline=1;darkOpacity=0.05;darkOpacity2=0.1;size=10;rotation=90;fillColor=#0000FF;strokeWidth=2;strokeColor=#33001A;" parent="1" vertex="1">
                    <mxGeometry x="1624.5" y="311.25" width="30" height="25" as="geometry"/>
                </mxCell>
                <mxCell id="M5zCR2oHDIOOvsmji_0k-3" value="" style="shape=cube;whiteSpace=wrap;html=1;boundedLbl=1;backgroundOutline=1;darkOpacity=0.05;darkOpacity2=0.1;size=10;rotation=90;strokeWidth=2;fillColor=#00FF00;" parent="1" vertex="1">
                    <mxGeometry x="1599.5" y="301.25" width="30" height="25" as="geometry"/>
                </mxCell>
                <mxCell id="M5zCR2oHDIOOvsmji_0k-4" value="" style="shape=cube;whiteSpace=wrap;html=1;boundedLbl=1;backgroundOutline=1;darkOpacity=0.05;darkOpacity2=0.1;size=10;rotation=90;fillColor=#0000FF;strokeWidth=2;strokeColor=#33001A;" parent="1" vertex="1">
                    <mxGeometry x="1624.5" y="291.25" width="30" height="25" as="geometry"/>
                </mxCell>
                <mxCell id="M5zCR2oHDIOOvsmji_0k-5" value="" style="shape=cube;whiteSpace=wrap;html=1;boundedLbl=1;backgroundOutline=1;darkOpacity=0.05;darkOpacity2=0.1;size=10;rotation=90;fillColor=#00FF00;strokeWidth=2;" parent="1" vertex="1">
                    <mxGeometry x="1614.5" y="321.25" width="30" height="25" as="geometry"/>
                </mxCell>
                <mxCell id="M5zCR2oHDIOOvsmji_0k-6" value="" style="shape=cube;whiteSpace=wrap;html=1;boundedLbl=1;backgroundOutline=1;darkOpacity=0.05;darkOpacity2=0.1;size=10;rotation=90;fillColor=#00FF00;strokeWidth=2;" parent="1" vertex="1">
                    <mxGeometry x="1614.5" y="301.25" width="30" height="25" as="geometry"/>
                </mxCell>
                <mxCell id="M5zCR2oHDIOOvsmji_0k-7" value="14" style="shape=cube;whiteSpace=wrap;html=1;boundedLbl=1;backgroundOutline=1;darkOpacity=0.05;darkOpacity2=0.1;size=10;rotation=90;strokeWidth=2;fillColor=#FF0000;fontStyle=1;horizontal=0;" parent="1" vertex="1">
                    <mxGeometry x="1589.5" y="331.25" width="30" height="25" as="geometry"/>
                </mxCell>
                <mxCell id="M5zCR2oHDIOOvsmji_0k-8" value="12" style="shape=cube;whiteSpace=wrap;html=1;boundedLbl=1;backgroundOutline=1;darkOpacity=0.05;darkOpacity2=0.1;size=10;rotation=90;strokeWidth=2;fillColor=#FF0000;fontStyle=1;horizontal=0;" parent="1" vertex="1">
                    <mxGeometry x="1589.5" y="311.25" width="30" height="25" as="geometry"/>
                </mxCell>
                <mxCell id="M5zCR2oHDIOOvsmji_0k-9" value="15" style="shape=cube;whiteSpace=wrap;html=1;boundedLbl=1;backgroundOutline=1;darkOpacity=0.05;darkOpacity2=0.1;size=10;rotation=90;strokeWidth=2;fillColor=#FF0000;fontStyle=1;horizontal=0;" parent="1" vertex="1">
                    <mxGeometry x="1604.5" y="331.25" width="30" height="25" as="geometry"/>
                </mxCell>
                <mxCell id="M5zCR2oHDIOOvsmji_0k-10" value="13" style="shape=cube;whiteSpace=wrap;html=1;boundedLbl=1;backgroundOutline=1;darkOpacity=0.05;darkOpacity2=0.1;size=10;rotation=90;strokeWidth=2;fillColor=#FF0000;fontStyle=1;horizontal=0;" parent="1" vertex="1">
                    <mxGeometry x="1604.5" y="311.25" width="30" height="25" as="geometry"/>
                </mxCell>
                <mxCell id="M5zCR2oHDIOOvsmji_0k-11" value="" style="shape=cube;whiteSpace=wrap;html=1;boundedLbl=1;backgroundOutline=1;darkOpacity=0.05;darkOpacity2=0.1;size=10;rotation=90;strokeWidth=2;" parent="1" vertex="1">
                    <mxGeometry x="1379.5" y="150.62" width="90" height="85" as="geometry"/>
                </mxCell>
                <mxCell id="M5zCR2oHDIOOvsmji_0k-12" value="" style="shape=cube;whiteSpace=wrap;html=1;boundedLbl=1;backgroundOutline=1;darkOpacity=0.05;darkOpacity2=0.1;size=10;rotation=90;fillColor=#0000FF;strokeWidth=2;fontStyle=1" parent="1" vertex="1">
                    <mxGeometry x="1439.5" y="210.62" width="30" height="25" as="geometry"/>
                </mxCell>
                <mxCell id="M5zCR2oHDIOOvsmji_0k-13" value="" style="shape=cube;whiteSpace=wrap;html=1;boundedLbl=1;backgroundOutline=1;darkOpacity=0.05;darkOpacity2=0.1;size=10;rotation=90;fillColor=#0000FF;strokeWidth=2;fontStyle=1" parent="1" vertex="1">
                    <mxGeometry x="1439.5" y="190.62" width="30" height="25" as="geometry"/>
                </mxCell>
                <mxCell id="M5zCR2oHDIOOvsmji_0k-14" value="" style="shape=cube;whiteSpace=wrap;html=1;boundedLbl=1;backgroundOutline=1;darkOpacity=0.05;darkOpacity2=0.1;size=10;rotation=90;strokeWidth=2;fillColor=#0000FF;fontStyle=1" parent="1" vertex="1">
                    <mxGeometry x="1439.5" y="170.62" width="30" height="25" as="geometry"/>
                </mxCell>
                <mxCell id="M5zCR2oHDIOOvsmji_0k-15" value="" style="shape=cube;whiteSpace=wrap;html=1;boundedLbl=1;backgroundOutline=1;darkOpacity=0.05;darkOpacity2=0.1;size=10;rotation=90;strokeWidth=2;fillColor=#0000FF;" parent="1" vertex="1">
                    <mxGeometry x="1379.5" y="150.62" width="30" height="25" as="geometry"/>
                </mxCell>
                <mxCell id="M5zCR2oHDIOOvsmji_0k-16" value="" style="shape=cube;whiteSpace=wrap;html=1;boundedLbl=1;backgroundOutline=1;darkOpacity=0.05;darkOpacity2=0.1;size=10;rotation=90;fillColor=#0000FF;strokeWidth=2;" parent="1" vertex="1">
                    <mxGeometry x="1394.5" y="150.62" width="30" height="25" as="geometry"/>
                </mxCell>
                <mxCell id="M5zCR2oHDIOOvsmji_0k-17" value="" style="shape=cube;whiteSpace=wrap;html=1;boundedLbl=1;backgroundOutline=1;darkOpacity=0.05;darkOpacity2=0.1;size=10;rotation=90;fillColor=#0000FF;strokeWidth=2;" parent="1" vertex="1">
                    <mxGeometry x="1409.5" y="150.62" width="30" height="25" as="geometry"/>
                </mxCell>
                <mxCell id="M5zCR2oHDIOOvsmji_0k-18" value="" style="shape=cube;whiteSpace=wrap;html=1;boundedLbl=1;backgroundOutline=1;darkOpacity=0.05;darkOpacity2=0.1;size=10;rotation=90;strokeWidth=2;fillColor=#0000FF;" parent="1" vertex="1">
                    <mxGeometry x="1424.5" y="150.62" width="30" height="25" as="geometry"/>
                </mxCell>
                <mxCell id="M5zCR2oHDIOOvsmji_0k-19" value="" style="shape=cube;whiteSpace=wrap;html=1;boundedLbl=1;backgroundOutline=1;darkOpacity=0.05;darkOpacity2=0.1;size=10;rotation=90;fillColor=#0000FF;strokeWidth=2;" parent="1" vertex="1">
                    <mxGeometry x="1439.5" y="150.62" width="30" height="25" as="geometry"/>
                </mxCell>
                <mxCell id="M5zCR2oHDIOOvsmji_0k-20" value="" style="endArrow=none;html=1;rounded=0;entryX=0;entryY=0;entryDx=10;entryDy=25;entryPerimeter=0;exitX=0.555;exitY=0.995;exitDx=0;exitDy=0;exitPerimeter=0;strokeWidth=2;fontStyle=1" parent="1" source="M5zCR2oHDIOOvsmji_0k-11" target="M5zCR2oHDIOOvsmji_0k-13" edge="1">
                    <mxGeometry width="50" height="50" relative="1" as="geometry">
                        <mxPoint x="1449.5" y="188.62" as="sourcePoint"/>
                        <mxPoint x="1499.5" y="238.62" as="targetPoint"/>
                    </mxGeometry>
                </mxCell>
                <mxCell id="M5zCR2oHDIOOvsmji_0k-21" value="" style="endArrow=none;html=1;rounded=0;entryX=0;entryY=0;entryDx=10;entryDy=25;entryPerimeter=0;exitX=0.555;exitY=0.995;exitDx=0;exitDy=0;exitPerimeter=0;strokeWidth=2;fontStyle=1" parent="1" edge="1">
                    <mxGeometry width="50" height="50" relative="1" as="geometry">
                        <mxPoint x="1382.5" y="218.6199999999999" as="sourcePoint"/>
                        <mxPoint x="1442.5" y="218.6199999999999" as="targetPoint"/>
                    </mxGeometry>
                </mxCell>
                <mxCell id="M5zCR2oHDIOOvsmji_0k-22" value="" style="endArrow=none;html=1;rounded=0;entryX=0.999;entryY=0.472;entryDx=0;entryDy=0;entryPerimeter=0;exitX=0.555;exitY=0.995;exitDx=0;exitDy=0;exitPerimeter=0;strokeWidth=2;fontStyle=1" parent="1" target="M5zCR2oHDIOOvsmji_0k-11" edge="1">
                    <mxGeometry width="50" height="50" relative="1" as="geometry">
                        <mxPoint x="1426.5" y="178.6199999999999" as="sourcePoint"/>
                        <mxPoint x="1486.5" y="178.62" as="targetPoint"/>
                    </mxGeometry>
                </mxCell>
                <mxCell id="M5zCR2oHDIOOvsmji_0k-23" value="" style="endArrow=none;html=1;rounded=0;entryX=0.999;entryY=0.472;entryDx=0;entryDy=0;entryPerimeter=0;exitX=0.555;exitY=0.995;exitDx=0;exitDy=0;exitPerimeter=0;strokeWidth=2;fontStyle=1" parent="1" edge="1">
                    <mxGeometry width="50" height="50" relative="1" as="geometry">
                        <mxPoint x="1411.5" y="178.6199999999999" as="sourcePoint"/>
                        <mxPoint x="1411.5" y="237.6199999999999" as="targetPoint"/>
                    </mxGeometry>
                </mxCell>
                <mxCell id="M5zCR2oHDIOOvsmji_0k-24" value="" style="endArrow=none;html=1;rounded=0;entryX=0.999;entryY=0.472;entryDx=0;entryDy=0;entryPerimeter=0;exitX=0.555;exitY=0.995;exitDx=0;exitDy=0;exitPerimeter=0;strokeWidth=2;fontStyle=1" parent="1" edge="1">
                    <mxGeometry width="50" height="50" relative="1" as="geometry">
                        <mxPoint x="1396.5" y="178.6199999999999" as="sourcePoint"/>
                        <mxPoint x="1396.5" y="237.6199999999999" as="targetPoint"/>
                    </mxGeometry>
                </mxCell>
                <mxCell id="M5zCR2oHDIOOvsmji_0k-25" value="" style="shape=cube;whiteSpace=wrap;html=1;boundedLbl=1;backgroundOutline=1;darkOpacity=0.05;darkOpacity2=0.1;size=10;rotation=90;strokeWidth=2;fontStyle=1" parent="1" vertex="1">
                    <mxGeometry x="1369.5" y="160.62" width="90" height="85" as="geometry"/>
                </mxCell>
                <mxCell id="M5zCR2oHDIOOvsmji_0k-26" value="" style="shape=cube;whiteSpace=wrap;html=1;boundedLbl=1;backgroundOutline=1;darkOpacity=0.05;darkOpacity2=0.1;size=10;rotation=90;fillColor=#00FF00;strokeWidth=2;fontStyle=1" parent="1" vertex="1">
                    <mxGeometry x="1429.5" y="220.62" width="30" height="25" as="geometry"/>
                </mxCell>
                <mxCell id="M5zCR2oHDIOOvsmji_0k-27" value="" style="shape=cube;whiteSpace=wrap;html=1;boundedLbl=1;backgroundOutline=1;darkOpacity=0.05;darkOpacity2=0.1;size=10;rotation=90;strokeWidth=2;fillColor=#00FF00;fontStyle=1" parent="1" vertex="1">
                    <mxGeometry x="1429.5" y="200.62" width="30" height="25" as="geometry"/>
                </mxCell>
                <mxCell id="M5zCR2oHDIOOvsmji_0k-28" value="" style="shape=cube;whiteSpace=wrap;html=1;boundedLbl=1;backgroundOutline=1;darkOpacity=0.05;darkOpacity2=0.1;size=10;rotation=90;fillColor=#00FF00;strokeWidth=2;fontStyle=1" parent="1" vertex="1">
                    <mxGeometry x="1429.5" y="180.62" width="30" height="25" as="geometry"/>
                </mxCell>
                <mxCell id="M5zCR2oHDIOOvsmji_0k-29" value="" style="shape=cube;whiteSpace=wrap;html=1;boundedLbl=1;backgroundOutline=1;darkOpacity=0.05;darkOpacity2=0.1;size=10;rotation=90;strokeWidth=2;fillColor=#00FF00;fontStyle=1" parent="1" vertex="1">
                    <mxGeometry x="1369.5" y="160.62" width="30" height="25" as="geometry"/>
                </mxCell>
                <mxCell id="M5zCR2oHDIOOvsmji_0k-30" value="" style="shape=cube;whiteSpace=wrap;html=1;boundedLbl=1;backgroundOutline=1;darkOpacity=0.05;darkOpacity2=0.1;size=10;rotation=90;strokeWidth=2;fillColor=#00FF00;fontStyle=1" parent="1" vertex="1">
                    <mxGeometry x="1384.5" y="160.62" width="30" height="25" as="geometry"/>
                </mxCell>
                <mxCell id="M5zCR2oHDIOOvsmji_0k-31" value="" style="shape=cube;whiteSpace=wrap;html=1;boundedLbl=1;backgroundOutline=1;darkOpacity=0.05;darkOpacity2=0.1;size=10;rotation=90;strokeWidth=2;fillColor=#00FF00;fontStyle=1" parent="1" vertex="1">
                    <mxGeometry x="1399.5" y="160.62" width="30" height="25" as="geometry"/>
                </mxCell>
                <mxCell id="M5zCR2oHDIOOvsmji_0k-32" value="" style="shape=cube;whiteSpace=wrap;html=1;boundedLbl=1;backgroundOutline=1;darkOpacity=0.05;darkOpacity2=0.1;size=10;rotation=90;strokeWidth=2;fillColor=#00FF00;fontStyle=1" parent="1" vertex="1">
                    <mxGeometry x="1414.5" y="160.62" width="30" height="25" as="geometry"/>
                </mxCell>
                <mxCell id="M5zCR2oHDIOOvsmji_0k-33" value="" style="shape=cube;whiteSpace=wrap;html=1;boundedLbl=1;backgroundOutline=1;darkOpacity=0.05;darkOpacity2=0.1;size=10;rotation=90;strokeWidth=2;fillColor=#00FF00;fontStyle=1" parent="1" vertex="1">
                    <mxGeometry x="1429.5" y="160.62" width="30" height="25" as="geometry"/>
                </mxCell>
                <mxCell id="M5zCR2oHDIOOvsmji_0k-34" value="" style="endArrow=none;html=1;rounded=0;entryX=0;entryY=0;entryDx=10;entryDy=25;entryPerimeter=0;exitX=0.555;exitY=0.995;exitDx=0;exitDy=0;exitPerimeter=0;strokeWidth=2;fontStyle=1" parent="1" source="M5zCR2oHDIOOvsmji_0k-25" target="M5zCR2oHDIOOvsmji_0k-27" edge="1">
                    <mxGeometry width="50" height="50" relative="1" as="geometry">
                        <mxPoint x="1439.5" y="198.62" as="sourcePoint"/>
                        <mxPoint x="1489.5" y="248.62" as="targetPoint"/>
                    </mxGeometry>
                </mxCell>
                <mxCell id="M5zCR2oHDIOOvsmji_0k-35" value="" style="endArrow=none;html=1;rounded=0;entryX=0;entryY=0;entryDx=10;entryDy=25;entryPerimeter=0;exitX=0.555;exitY=0.995;exitDx=0;exitDy=0;exitPerimeter=0;strokeWidth=2;fontStyle=1" parent="1" edge="1">
                    <mxGeometry width="50" height="50" relative="1" as="geometry">
                        <mxPoint x="1372.5" y="228.6199999999999" as="sourcePoint"/>
                        <mxPoint x="1432.5" y="228.6199999999999" as="targetPoint"/>
                    </mxGeometry>
                </mxCell>
                <mxCell id="M5zCR2oHDIOOvsmji_0k-36" value="" style="endArrow=none;html=1;rounded=0;entryX=0.999;entryY=0.472;entryDx=0;entryDy=0;entryPerimeter=0;exitX=0.555;exitY=0.995;exitDx=0;exitDy=0;exitPerimeter=0;strokeWidth=2;fontStyle=1" parent="1" target="M5zCR2oHDIOOvsmji_0k-25" edge="1">
                    <mxGeometry width="50" height="50" relative="1" as="geometry">
                        <mxPoint x="1416.5" y="188.6199999999999" as="sourcePoint"/>
                        <mxPoint x="1476.5" y="188.62" as="targetPoint"/>
                    </mxGeometry>
                </mxCell>
                <mxCell id="M5zCR2oHDIOOvsmji_0k-37" value="" style="endArrow=none;html=1;rounded=0;entryX=0.999;entryY=0.472;entryDx=0;entryDy=0;entryPerimeter=0;exitX=0.555;exitY=0.995;exitDx=0;exitDy=0;exitPerimeter=0;strokeWidth=2;fontStyle=1" parent="1" edge="1">
                    <mxGeometry width="50" height="50" relative="1" as="geometry">
                        <mxPoint x="1401.5" y="188.6199999999999" as="sourcePoint"/>
                        <mxPoint x="1401.5" y="247.6199999999999" as="targetPoint"/>
                    </mxGeometry>
                </mxCell>
                <mxCell id="M5zCR2oHDIOOvsmji_0k-38" value="" style="endArrow=none;html=1;rounded=0;entryX=0.999;entryY=0.472;entryDx=0;entryDy=0;entryPerimeter=0;exitX=0.555;exitY=0.995;exitDx=0;exitDy=0;exitPerimeter=0;strokeWidth=2;fontStyle=1" parent="1" edge="1">
                    <mxGeometry width="50" height="50" relative="1" as="geometry">
                        <mxPoint x="1386.5" y="188.6199999999999" as="sourcePoint"/>
                        <mxPoint x="1386.5" y="247.6199999999999" as="targetPoint"/>
                    </mxGeometry>
                </mxCell>
                <mxCell id="M5zCR2oHDIOOvsmji_0k-39" value="" style="shape=cube;whiteSpace=wrap;html=1;boundedLbl=1;backgroundOutline=1;darkOpacity=0.05;darkOpacity2=0.1;size=10;rotation=90;strokeWidth=2;fontStyle=1" parent="1" vertex="1">
                    <mxGeometry x="1359.5" y="170.62" width="90" height="85" as="geometry"/>
                </mxCell>
                <mxCell id="M5zCR2oHDIOOvsmji_0k-40" value="15" style="shape=cube;whiteSpace=wrap;html=1;boundedLbl=1;backgroundOutline=1;darkOpacity=0.05;darkOpacity2=0.1;size=10;rotation=90;fillColor=#FF0000;strokeWidth=2;horizontal=0;fontSize=9;fontStyle=1" parent="1" vertex="1">
                    <mxGeometry x="1359.5" y="230.62" width="30" height="25" as="geometry"/>
                </mxCell>
                <mxCell id="M5zCR2oHDIOOvsmji_0k-41" value="16" style="shape=cube;whiteSpace=wrap;html=1;boundedLbl=1;backgroundOutline=1;darkOpacity=0.05;darkOpacity2=0.1;size=10;rotation=90;horizontal=0;strokeWidth=2;fontSize=9;fillColor=#FF0000;fontStyle=1" parent="1" vertex="1">
                    <mxGeometry x="1374.5" y="230.62" width="30" height="25" as="geometry"/>
                </mxCell>
                <mxCell id="M5zCR2oHDIOOvsmji_0k-42" value="17" style="shape=cube;whiteSpace=wrap;html=1;boundedLbl=1;backgroundOutline=1;darkOpacity=0.05;darkOpacity2=0.1;size=10;rotation=90;horizontal=0;strokeWidth=2;fontSize=9;fillColor=#FF0000;fontStyle=1" parent="1" vertex="1">
                    <mxGeometry x="1389.5" y="230.62" width="30" height="25" as="geometry"/>
                </mxCell>
                <mxCell id="M5zCR2oHDIOOvsmji_0k-43" value="18" style="shape=cube;whiteSpace=wrap;html=1;boundedLbl=1;backgroundOutline=1;darkOpacity=0.05;darkOpacity2=0.1;size=10;rotation=90;horizontal=0;strokeWidth=2;fontSize=9;fillColor=#FF0000;fontStyle=1" parent="1" vertex="1">
                    <mxGeometry x="1404.5" y="230.62" width="30" height="25" as="geometry"/>
                </mxCell>
                <mxCell id="M5zCR2oHDIOOvsmji_0k-44" value="19" style="shape=cube;whiteSpace=wrap;html=1;boundedLbl=1;backgroundOutline=1;darkOpacity=0.05;darkOpacity2=0.1;size=10;rotation=90;fillColor=#FF0000;strokeWidth=2;horizontal=0;fontSize=9;fontStyle=1" parent="1" vertex="1">
                    <mxGeometry x="1419.5" y="230.62" width="30" height="25" as="geometry"/>
                </mxCell>
                <mxCell id="M5zCR2oHDIOOvsmji_0k-45" value="10&lt;br style=&quot;font-size: 9px;&quot;&gt;" style="shape=cube;whiteSpace=wrap;html=1;boundedLbl=1;backgroundOutline=1;darkOpacity=0.05;darkOpacity2=0.1;size=10;rotation=90;horizontal=0;strokeWidth=2;fontSize=9;fillColor=#FF0000;fontStyle=1" parent="1" vertex="1">
                    <mxGeometry x="1359.5" y="210.62" width="30" height="25" as="geometry"/>
                </mxCell>
                <mxCell id="M5zCR2oHDIOOvsmji_0k-46" value="11" style="shape=cube;whiteSpace=wrap;html=1;boundedLbl=1;backgroundOutline=1;darkOpacity=0.05;darkOpacity2=0.1;size=10;rotation=90;fillColor=#FF0000;strokeWidth=2;horizontal=0;fontStyle=1;fontSize=9;" parent="1" vertex="1">
                    <mxGeometry x="1374.5" y="210.62" width="30" height="25" as="geometry"/>
                </mxCell>
                <mxCell id="M5zCR2oHDIOOvsmji_0k-47" value="12" style="shape=cube;whiteSpace=wrap;html=1;boundedLbl=1;backgroundOutline=1;darkOpacity=0.05;darkOpacity2=0.1;size=10;rotation=90;horizontal=0;strokeWidth=2;fontSize=9;fillColor=#FF0000;fontStyle=1" parent="1" vertex="1">
                    <mxGeometry x="1389.5" y="209.62" width="30" height="27" as="geometry"/>
                </mxCell>
                <mxCell id="M5zCR2oHDIOOvsmji_0k-48" value="13" style="shape=cube;whiteSpace=wrap;html=1;boundedLbl=1;backgroundOutline=1;darkOpacity=0.05;darkOpacity2=0.1;size=10;rotation=90;horizontal=0;strokeWidth=2;fontSize=9;fillColor=#FF0000;fontStyle=1" parent="1" vertex="1">
                    <mxGeometry x="1404.5" y="210.62" width="30" height="25" as="geometry"/>
                </mxCell>
                <mxCell id="M5zCR2oHDIOOvsmji_0k-49" value="5" style="shape=cube;whiteSpace=wrap;html=1;boundedLbl=1;backgroundOutline=1;darkOpacity=0.05;darkOpacity2=0.1;size=10;rotation=90;horizontal=0;strokeWidth=2;fontSize=9;fillColor=#FF0000;fontStyle=1" parent="1" vertex="1">
                    <mxGeometry x="1359.5" y="190.62" width="30" height="25" as="geometry"/>
                </mxCell>
                <mxCell id="M5zCR2oHDIOOvsmji_0k-50" value="6" style="shape=cube;whiteSpace=wrap;html=1;boundedLbl=1;backgroundOutline=1;darkOpacity=0.05;darkOpacity2=0.1;size=10;rotation=90;horizontal=0;strokeWidth=2;fontSize=9;fillColor=#FF0000;fontStyle=1" parent="1" vertex="1">
                    <mxGeometry x="1374.5" y="190.62" width="30" height="25" as="geometry"/>
                </mxCell>
                <mxCell id="M5zCR2oHDIOOvsmji_0k-51" value="7" style="shape=cube;whiteSpace=wrap;html=1;boundedLbl=1;backgroundOutline=1;darkOpacity=0.05;darkOpacity2=0.1;size=10;rotation=90;horizontal=0;strokeWidth=2;fontSize=9;fillColor=#FF0000;fontStyle=1" parent="1" vertex="1">
                    <mxGeometry x="1389.5" y="190.62" width="30" height="25" as="geometry"/>
                </mxCell>
                <mxCell id="M5zCR2oHDIOOvsmji_0k-52" value="8" style="shape=cube;whiteSpace=wrap;html=1;boundedLbl=1;backgroundOutline=1;darkOpacity=0.05;darkOpacity2=0.1;size=10;rotation=90;horizontal=0;strokeWidth=2;fontSize=9;fillColor=#FF0000;fontStyle=1" parent="1" vertex="1">
                    <mxGeometry x="1404.5" y="190.62" width="30" height="25" as="geometry"/>
                </mxCell>
                <mxCell id="M5zCR2oHDIOOvsmji_0k-53" value="0" style="shape=cube;whiteSpace=wrap;html=1;boundedLbl=1;backgroundOutline=1;darkOpacity=0.05;darkOpacity2=0.1;size=10;rotation=90;fillColor=#FF0000;strokeWidth=2;horizontal=0;fontSize=9;fontStyle=1" parent="1" vertex="1">
                    <mxGeometry x="1359.5" y="170.62" width="30" height="25" as="geometry"/>
                </mxCell>
                <mxCell id="M5zCR2oHDIOOvsmji_0k-54" value="1" style="shape=cube;whiteSpace=wrap;html=1;boundedLbl=1;backgroundOutline=1;darkOpacity=0.05;darkOpacity2=0.1;size=10;rotation=90;horizontal=0;strokeWidth=2;fontSize=9;fillColor=#FF0000;fontStyle=1" parent="1" vertex="1">
                    <mxGeometry x="1374.5" y="170.62" width="30" height="25" as="geometry"/>
                </mxCell>
                <mxCell id="M5zCR2oHDIOOvsmji_0k-55" value="2" style="shape=cube;whiteSpace=wrap;html=1;boundedLbl=1;backgroundOutline=1;darkOpacity=0.05;darkOpacity2=0.1;size=10;rotation=90;fillColor=#FF0000;strokeWidth=2;horizontal=0;fontSize=9;fontStyle=1" parent="1" vertex="1">
                    <mxGeometry x="1389.5" y="170.62" width="30" height="25" as="geometry"/>
                </mxCell>
                <mxCell id="M5zCR2oHDIOOvsmji_0k-56" value="3" style="shape=cube;whiteSpace=wrap;html=1;boundedLbl=1;backgroundOutline=1;darkOpacity=0.05;darkOpacity2=0.1;size=10;rotation=90;horizontal=0;strokeWidth=2;fontSize=9;fillColor=#FF0000;fontStyle=1" parent="1" vertex="1">
                    <mxGeometry x="1404.5" y="170.62" width="30" height="25" as="geometry"/>
                </mxCell>
                <mxCell id="M5zCR2oHDIOOvsmji_0k-57" value="14" style="shape=cube;whiteSpace=wrap;html=1;boundedLbl=1;backgroundOutline=1;darkOpacity=0.05;darkOpacity2=0.1;size=10;rotation=90;horizontal=0;strokeWidth=2;fontSize=9;fillColor=#FF0000;fontStyle=1" parent="1" vertex="1">
                    <mxGeometry x="1419.5" y="210.62" width="30" height="25" as="geometry"/>
                </mxCell>
                <mxCell id="M5zCR2oHDIOOvsmji_0k-58" value="9" style="shape=cube;whiteSpace=wrap;html=1;boundedLbl=1;backgroundOutline=1;darkOpacity=0.05;darkOpacity2=0.1;size=10;rotation=90;fillColor=#FF0000;strokeWidth=2;horizontal=0;fontSize=9;fontStyle=1" parent="1" vertex="1">
                    <mxGeometry x="1419.5" y="190.62" width="30" height="25" as="geometry"/>
                </mxCell>
                <mxCell id="M5zCR2oHDIOOvsmji_0k-59" value="4" style="shape=cube;whiteSpace=wrap;html=1;boundedLbl=1;backgroundOutline=1;darkOpacity=0.05;darkOpacity2=0.1;size=10;rotation=90;horizontal=0;strokeWidth=2;fontSize=9;fillColor=#FF0000;fontStyle=1" parent="1" vertex="1">
                    <mxGeometry x="1419.5" y="170.62" width="30" height="25" as="geometry"/>
                </mxCell>
                <mxCell id="M5zCR2oHDIOOvsmji_0k-60" value="0" style="rounded=0;whiteSpace=wrap;html=1;fontSize=9;fontColor=#000000;strokeColor=#000000;strokeWidth=2;fillColor=#FF0000;gradientColor=none;fontStyle=1" parent="1" vertex="1">
                    <mxGeometry x="1240" y="500.62" width="20" height="20" as="geometry"/>
                </mxCell>
                <mxCell id="M5zCR2oHDIOOvsmji_0k-61" value="1" style="rounded=0;whiteSpace=wrap;html=1;fontSize=9;fontColor=#000000;strokeColor=#000000;strokeWidth=2;fillColor=#FF0000;gradientColor=none;fontStyle=1" parent="1" vertex="1">
                    <mxGeometry x="1260" y="500.62" width="20" height="20" as="geometry"/>
                </mxCell>
                <mxCell id="M5zCR2oHDIOOvsmji_0k-62" value="2" style="rounded=0;whiteSpace=wrap;html=1;fontSize=9;fontColor=#000000;strokeColor=#000000;strokeWidth=2;fillColor=#FF0000;gradientColor=none;fontStyle=1" parent="1" vertex="1">
                    <mxGeometry x="1260" y="520.62" width="20" height="20" as="geometry"/>
                </mxCell>
                <mxCell id="M5zCR2oHDIOOvsmji_0k-63" value="3" style="rounded=0;whiteSpace=wrap;html=1;fontSize=9;fontColor=#000000;strokeColor=#000000;strokeWidth=2;fillColor=#FF0000;gradientColor=none;fontStyle=1" parent="1" vertex="1">
                    <mxGeometry x="1260" y="540.62" width="20" height="20" as="geometry"/>
                </mxCell>
                <mxCell id="M5zCR2oHDIOOvsmji_0k-64" value="4" style="rounded=0;whiteSpace=wrap;html=1;fontSize=9;fontColor=#000000;strokeColor=#000000;strokeWidth=2;fillColor=#FF0000;gradientColor=none;fontStyle=1" parent="1" vertex="1">
                    <mxGeometry x="1260" y="560.62" width="20" height="20" as="geometry"/>
                </mxCell>
                <mxCell id="M5zCR2oHDIOOvsmji_0k-65" value="5" style="rounded=0;whiteSpace=wrap;html=1;fontSize=9;fontColor=#000000;strokeColor=#000000;strokeWidth=2;fillColor=#FF0000;gradientColor=none;fontStyle=1" parent="1" vertex="1">
                    <mxGeometry x="1280" y="500.62" width="20" height="20" as="geometry"/>
                </mxCell>
                <mxCell id="M5zCR2oHDIOOvsmji_0k-66" value="6" style="rounded=0;whiteSpace=wrap;html=1;fontSize=9;fontColor=#000000;strokeColor=#000000;strokeWidth=2;fillColor=#FF0000;gradientColor=none;fontStyle=1" parent="1" vertex="1">
                    <mxGeometry x="1300" y="500.62" width="20" height="20" as="geometry"/>
                </mxCell>
                <mxCell id="M5zCR2oHDIOOvsmji_0k-67" value="7" style="rounded=0;whiteSpace=wrap;html=1;fontSize=9;fontColor=#000000;strokeColor=#000000;strokeWidth=2;fillColor=#FF0000;gradientColor=none;fontStyle=1" parent="1" vertex="1">
                    <mxGeometry x="1300" y="520.62" width="20" height="20" as="geometry"/>
                </mxCell>
                <mxCell id="M5zCR2oHDIOOvsmji_0k-68" value="8" style="rounded=0;whiteSpace=wrap;html=1;fontSize=9;fontColor=#000000;strokeColor=#000000;strokeWidth=2;fillColor=#FF0000;gradientColor=none;fontStyle=1" parent="1" vertex="1">
                    <mxGeometry x="1300" y="540.62" width="20" height="20" as="geometry"/>
                </mxCell>
                <mxCell id="M5zCR2oHDIOOvsmji_0k-69" value="9" style="rounded=0;whiteSpace=wrap;html=1;fontSize=9;fontColor=#000000;strokeColor=#000000;strokeWidth=2;fillColor=#FF0000;gradientColor=none;fontStyle=1" parent="1" vertex="1">
                    <mxGeometry x="1300" y="560.62" width="20" height="20" as="geometry"/>
                </mxCell>
                <mxCell id="M5zCR2oHDIOOvsmji_0k-70" value="" style="shape=cube;whiteSpace=wrap;html=1;boundedLbl=1;backgroundOutline=1;darkOpacity=0.05;darkOpacity2=0.1;size=10;rotation=90;strokeWidth=2;fillColor=#d5e8d4;strokeColor=#33001A;" parent="1" vertex="1">
                    <mxGeometry x="1932.5" y="206.87" width="30" height="25" as="geometry"/>
                </mxCell>
                <mxCell id="M5zCR2oHDIOOvsmji_0k-71" value="" style="shape=cube;whiteSpace=wrap;html=1;boundedLbl=1;backgroundOutline=1;darkOpacity=0.05;darkOpacity2=0.1;size=10;rotation=90;strokeWidth=2;fillColor=#d5e8d4;strokeColor=#33001A;" parent="1" vertex="1">
                    <mxGeometry x="1932.5" y="186.87" width="30" height="25" as="geometry"/>
                </mxCell>
                <mxCell id="M5zCR2oHDIOOvsmji_0k-72" value="" style="shape=cube;whiteSpace=wrap;html=1;boundedLbl=1;backgroundOutline=1;darkOpacity=0.05;darkOpacity2=0.1;size=10;rotation=90;strokeWidth=2;fillColor=#d5e8d4;strokeColor=#33001A;" parent="1" vertex="1">
                    <mxGeometry x="1932.5" y="166.87" width="30" height="25" as="geometry"/>
                </mxCell>
                <mxCell id="M5zCR2oHDIOOvsmji_0k-73" value="" style="shape=cube;whiteSpace=wrap;html=1;boundedLbl=1;backgroundOutline=1;darkOpacity=0.05;darkOpacity2=0.1;size=10;rotation=90;strokeWidth=2;fillColor=#d5e8d4;strokeColor=#33001A;" parent="1" vertex="1">
                    <mxGeometry x="1887.5" y="146.87" width="30" height="25" as="geometry"/>
                </mxCell>
                <mxCell id="M5zCR2oHDIOOvsmji_0k-74" value="" style="shape=cube;whiteSpace=wrap;html=1;boundedLbl=1;backgroundOutline=1;darkOpacity=0.05;darkOpacity2=0.1;size=10;rotation=90;fillColor=#d5e8d4;strokeWidth=2;strokeColor=#33001A;" parent="1" vertex="1">
                    <mxGeometry x="1902.5" y="146.87" width="30" height="25" as="geometry"/>
                </mxCell>
                <mxCell id="M5zCR2oHDIOOvsmji_0k-75" value="" style="shape=cube;whiteSpace=wrap;html=1;boundedLbl=1;backgroundOutline=1;darkOpacity=0.05;darkOpacity2=0.1;size=10;rotation=90;fillColor=#d5e8d4;strokeWidth=2;strokeColor=#33001A;" parent="1" vertex="1">
                    <mxGeometry x="1917.5" y="146.87" width="30" height="25" as="geometry"/>
                </mxCell>
                <mxCell id="M5zCR2oHDIOOvsmji_0k-76" value="" style="shape=cube;whiteSpace=wrap;html=1;boundedLbl=1;backgroundOutline=1;darkOpacity=0.05;darkOpacity2=0.1;size=10;rotation=90;strokeWidth=2;fillColor=#d5e8d4;strokeColor=#33001A;" parent="1" vertex="1">
                    <mxGeometry x="1932.5" y="146.87" width="30" height="25" as="geometry"/>
                </mxCell>
                <mxCell id="M5zCR2oHDIOOvsmji_0k-77" value="" style="shape=cube;whiteSpace=wrap;html=1;boundedLbl=1;backgroundOutline=1;darkOpacity=0.05;darkOpacity2=0.1;size=10;rotation=90;strokeWidth=2;fillColor=#FF3399;" parent="1" vertex="1">
                    <mxGeometry x="1922.5" y="216.87" width="30" height="25" as="geometry"/>
                </mxCell>
                <mxCell id="M5zCR2oHDIOOvsmji_0k-78" value="" style="shape=cube;whiteSpace=wrap;html=1;boundedLbl=1;backgroundOutline=1;darkOpacity=0.05;darkOpacity2=0.1;size=10;rotation=90;strokeWidth=2;fillColor=#FF3399;" parent="1" vertex="1">
                    <mxGeometry x="1922.5" y="196.87" width="30" height="25" as="geometry"/>
                </mxCell>
                <mxCell id="M5zCR2oHDIOOvsmji_0k-79" value="" style="shape=cube;whiteSpace=wrap;html=1;boundedLbl=1;backgroundOutline=1;darkOpacity=0.05;darkOpacity2=0.1;size=10;rotation=90;strokeWidth=2;fillColor=#FF3399;" parent="1" vertex="1">
                    <mxGeometry x="1922.5" y="176.87" width="30" height="25" as="geometry"/>
                </mxCell>
                <mxCell id="M5zCR2oHDIOOvsmji_0k-80" value="" style="shape=cube;whiteSpace=wrap;html=1;boundedLbl=1;backgroundOutline=1;darkOpacity=0.05;darkOpacity2=0.1;size=10;rotation=90;horizontal=0;strokeWidth=2;fontSize=9;fillColor=#FFFF66;fontStyle=1" parent="1" vertex="1">
                    <mxGeometry x="1857.5" y="236.87" width="30" height="25" as="geometry"/>
                </mxCell>
                <mxCell id="M5zCR2oHDIOOvsmji_0k-81" value="" style="shape=cube;whiteSpace=wrap;html=1;boundedLbl=1;backgroundOutline=1;darkOpacity=0.05;darkOpacity2=0.1;size=10;rotation=90;horizontal=0;strokeWidth=2;fontSize=9;fillColor=#FFFF66;fontStyle=1" parent="1" vertex="1">
                    <mxGeometry x="1872.5" y="236.87" width="30" height="25" as="geometry"/>
                </mxCell>
                <mxCell id="M5zCR2oHDIOOvsmji_0k-82" value="" style="shape=cube;whiteSpace=wrap;html=1;boundedLbl=1;backgroundOutline=1;darkOpacity=0.05;darkOpacity2=0.1;size=10;rotation=90;strokeWidth=2;fillColor=#FF3399;" parent="1" vertex="1">
                    <mxGeometry x="1877.5" y="156.87" width="30" height="25" as="geometry"/>
                </mxCell>
                <mxCell id="M5zCR2oHDIOOvsmji_0k-83" value="" style="shape=cube;whiteSpace=wrap;html=1;boundedLbl=1;backgroundOutline=1;darkOpacity=0.05;darkOpacity2=0.1;size=10;rotation=90;fillColor=#FF3399;strokeWidth=2;" parent="1" vertex="1">
                    <mxGeometry x="1892.5" y="156.87" width="30" height="25" as="geometry"/>
                </mxCell>
                <mxCell id="M5zCR2oHDIOOvsmji_0k-84" value="" style="shape=cube;whiteSpace=wrap;html=1;boundedLbl=1;backgroundOutline=1;darkOpacity=0.05;darkOpacity2=0.1;size=10;rotation=90;fillColor=#FF3399;strokeWidth=2;" parent="1" vertex="1">
                    <mxGeometry x="1907.5" y="156.87" width="30" height="25" as="geometry"/>
                </mxCell>
                <mxCell id="M5zCR2oHDIOOvsmji_0k-85" value="" style="shape=cube;whiteSpace=wrap;html=1;boundedLbl=1;backgroundOutline=1;darkOpacity=0.05;darkOpacity2=0.1;size=10;rotation=90;strokeWidth=2;fillColor=#7EA6E0;fontStyle=1" parent="1" vertex="1">
                    <mxGeometry x="1867.5" y="166.87" width="30" height="25" as="geometry"/>
                </mxCell>
                <mxCell id="M5zCR2oHDIOOvsmji_0k-86" value="" style="shape=cube;whiteSpace=wrap;html=1;boundedLbl=1;backgroundOutline=1;darkOpacity=0.05;darkOpacity2=0.1;size=10;rotation=90;strokeWidth=2;fillColor=#7EA6E0;fontStyle=1" parent="1" vertex="1">
                    <mxGeometry x="1882.5" y="166.87" width="30" height="25" as="geometry"/>
                </mxCell>
                <mxCell id="M5zCR2oHDIOOvsmji_0k-87" value="" style="shape=cube;whiteSpace=wrap;html=1;boundedLbl=1;backgroundOutline=1;darkOpacity=0.05;darkOpacity2=0.1;size=10;rotation=90;strokeWidth=2;fillColor=#7EA6E0;fontStyle=1" parent="1" vertex="1">
                    <mxGeometry x="1897.5" y="166.87" width="30" height="25" as="geometry"/>
                </mxCell>
                <mxCell id="M5zCR2oHDIOOvsmji_0k-88" value="" style="shape=cube;whiteSpace=wrap;html=1;boundedLbl=1;backgroundOutline=1;darkOpacity=0.05;darkOpacity2=0.1;size=10;rotation=90;horizontal=0;strokeWidth=2;fontSize=9;fillColor=#FFFF66;fontStyle=1" parent="1" vertex="1">
                    <mxGeometry x="1857.5" y="216.87" width="30" height="25" as="geometry"/>
                </mxCell>
                <mxCell id="M5zCR2oHDIOOvsmji_0k-89" value="" style="shape=cube;whiteSpace=wrap;html=1;boundedLbl=1;backgroundOutline=1;darkOpacity=0.05;darkOpacity2=0.1;size=10;rotation=90;fillColor=#FFFF66;strokeWidth=2;horizontal=0;fontStyle=1;fontSize=9;" parent="1" vertex="1">
                    <mxGeometry x="1872.5" y="216.87" width="30" height="25" as="geometry"/>
                </mxCell>
                <mxCell id="M5zCR2oHDIOOvsmji_0k-90" value="" style="shape=cube;whiteSpace=wrap;html=1;boundedLbl=1;backgroundOutline=1;darkOpacity=0.05;darkOpacity2=0.1;size=10;rotation=90;horizontal=0;strokeWidth=2;fontSize=9;fillColor=#FFFF66;fontStyle=1" parent="1" vertex="1">
                    <mxGeometry x="1857.5" y="196.87" width="30" height="25" as="geometry"/>
                </mxCell>
                <mxCell id="M5zCR2oHDIOOvsmji_0k-91" value="" style="shape=cube;whiteSpace=wrap;html=1;boundedLbl=1;backgroundOutline=1;darkOpacity=0.05;darkOpacity2=0.1;size=10;rotation=90;horizontal=0;strokeWidth=2;fontSize=9;fillColor=#FFFF66;fontStyle=1" parent="1" vertex="1">
                    <mxGeometry x="1872.5" y="196.87" width="30" height="25" as="geometry"/>
                </mxCell>
                <mxCell id="M5zCR2oHDIOOvsmji_0k-92" value="" style="shape=cube;whiteSpace=wrap;html=1;boundedLbl=1;backgroundOutline=1;darkOpacity=0.05;darkOpacity2=0.1;size=10;rotation=90;fillColor=#FFFF66;strokeWidth=2;horizontal=0;fontSize=9;fontStyle=1" parent="1" vertex="1">
                    <mxGeometry x="1857.5" y="176.87" width="30" height="25" as="geometry"/>
                </mxCell>
                <mxCell id="M5zCR2oHDIOOvsmji_0k-93" value="" style="shape=cube;whiteSpace=wrap;html=1;boundedLbl=1;backgroundOutline=1;darkOpacity=0.05;darkOpacity2=0.1;size=10;rotation=90;horizontal=0;strokeWidth=2;fontSize=9;fillColor=#FFFF66;fontStyle=1" parent="1" vertex="1">
                    <mxGeometry x="1872.5" y="176.87" width="30" height="25" as="geometry"/>
                </mxCell>
                <mxCell id="M5zCR2oHDIOOvsmji_0k-94" value="" style="shape=cube;whiteSpace=wrap;html=1;boundedLbl=1;backgroundOutline=1;darkOpacity=0.05;darkOpacity2=0.1;size=10;rotation=90;horizontal=0;strokeWidth=2;fontSize=9;fillColor=#FFFF66;fontStyle=1" parent="1" vertex="1">
                    <mxGeometry x="1887.5" y="236.87" width="30" height="25" as="geometry"/>
                </mxCell>
                <mxCell id="M5zCR2oHDIOOvsmji_0k-95" value="" style="shape=cube;whiteSpace=wrap;html=1;boundedLbl=1;backgroundOutline=1;darkOpacity=0.05;darkOpacity2=0.1;size=10;rotation=90;horizontal=0;strokeWidth=2;fontSize=9;fillColor=#FFFF66;fontStyle=1" parent="1" vertex="1">
                    <mxGeometry x="1887.5" y="216.87" width="30" height="25" as="geometry"/>
                </mxCell>
                <mxCell id="M5zCR2oHDIOOvsmji_0k-96" value="" style="shape=cube;whiteSpace=wrap;html=1;boundedLbl=1;backgroundOutline=1;darkOpacity=0.05;darkOpacity2=0.1;size=10;rotation=90;horizontal=0;strokeWidth=2;fontSize=9;fillColor=#FFFF66;fontStyle=1" parent="1" vertex="1">
                    <mxGeometry x="1887.5" y="196.87" width="30" height="25" as="geometry"/>
                </mxCell>
                <mxCell id="M5zCR2oHDIOOvsmji_0k-97" value="" style="shape=cube;whiteSpace=wrap;html=1;boundedLbl=1;backgroundOutline=1;darkOpacity=0.05;darkOpacity2=0.1;size=10;rotation=90;fillColor=#FFFF66;strokeWidth=2;horizontal=0;fontSize=9;fontStyle=1" parent="1" vertex="1">
                    <mxGeometry x="1887.5" y="176.87" width="30" height="25" as="geometry"/>
                </mxCell>
                <mxCell id="M5zCR2oHDIOOvsmji_0k-98" value="" style="shape=cube;whiteSpace=wrap;html=1;boundedLbl=1;backgroundOutline=1;darkOpacity=0.05;darkOpacity2=0.1;size=10;rotation=90;strokeWidth=2;fillColor=#FF3399;" parent="1" vertex="1">
                    <mxGeometry x="1922.5" y="156.87" width="30" height="25" as="geometry"/>
                </mxCell>
                <mxCell id="M5zCR2oHDIOOvsmji_0k-99" value="" style="shape=cube;whiteSpace=wrap;html=1;boundedLbl=1;backgroundOutline=1;darkOpacity=0.05;darkOpacity2=0.1;size=10;rotation=90;strokeWidth=2;fillColor=#7EA6E0;fontStyle=1" parent="1" vertex="1">
                    <mxGeometry x="1912.5" y="226.87" width="30" height="25" as="geometry"/>
                </mxCell>
                <mxCell id="M5zCR2oHDIOOvsmji_0k-100" value="" style="shape=cube;whiteSpace=wrap;html=1;boundedLbl=1;backgroundOutline=1;darkOpacity=0.05;darkOpacity2=0.1;size=10;rotation=90;strokeWidth=2;fillColor=#7EA6E0;fontStyle=1" parent="1" vertex="1">
                    <mxGeometry x="1912.5" y="207.87" width="30" height="25" as="geometry"/>
                </mxCell>
                <mxCell id="M5zCR2oHDIOOvsmji_0k-101" value="" style="shape=cube;whiteSpace=wrap;html=1;boundedLbl=1;backgroundOutline=1;darkOpacity=0.05;darkOpacity2=0.1;size=10;rotation=90;strokeWidth=2;fillColor=#7EA6E0;fontStyle=1" parent="1" vertex="1">
                    <mxGeometry x="1912.5" y="186.87" width="30" height="25" as="geometry"/>
                </mxCell>
                <mxCell id="M5zCR2oHDIOOvsmji_0k-102" value="" style="shape=cube;whiteSpace=wrap;html=1;boundedLbl=1;backgroundOutline=1;darkOpacity=0.05;darkOpacity2=0.1;size=10;rotation=90;strokeWidth=2;fillColor=#7EA6E0;fontStyle=1" parent="1" vertex="1">
                    <mxGeometry x="1912.5" y="166.87" width="30" height="25" as="geometry"/>
                </mxCell>
                <mxCell id="M5zCR2oHDIOOvsmji_0k-103" value="" style="shape=cube;whiteSpace=wrap;html=1;boundedLbl=1;backgroundOutline=1;darkOpacity=0.05;darkOpacity2=0.1;size=10;rotation=90;horizontal=0;strokeWidth=2;fontSize=9;fillColor=#FFFF66;fontStyle=1" parent="1" vertex="1">
                    <mxGeometry x="1902.5" y="236.87" width="30" height="25" as="geometry"/>
                </mxCell>
                <mxCell id="M5zCR2oHDIOOvsmji_0k-104" value="" style="shape=cube;whiteSpace=wrap;html=1;boundedLbl=1;backgroundOutline=1;darkOpacity=0.05;darkOpacity2=0.1;size=10;rotation=90;horizontal=0;strokeWidth=2;fontSize=9;fillColor=#FFFF66;fontStyle=1" parent="1" vertex="1">
                    <mxGeometry x="1902.5" y="216.87" width="30" height="25" as="geometry"/>
                </mxCell>
                <mxCell id="M5zCR2oHDIOOvsmji_0k-105" value="" style="shape=cube;whiteSpace=wrap;html=1;boundedLbl=1;backgroundOutline=1;darkOpacity=0.05;darkOpacity2=0.1;size=10;rotation=90;horizontal=0;strokeWidth=2;fontSize=9;fillColor=#FFFF66;fontStyle=1" parent="1" vertex="1">
                    <mxGeometry x="1902.5" y="196.87" width="30" height="25" as="geometry"/>
                </mxCell>
                <mxCell id="M5zCR2oHDIOOvsmji_0k-106" value="" style="shape=cube;whiteSpace=wrap;html=1;boundedLbl=1;backgroundOutline=1;darkOpacity=0.05;darkOpacity2=0.1;size=10;rotation=90;horizontal=0;strokeWidth=2;fontSize=9;fillColor=#FFFF66;fontStyle=1" parent="1" vertex="1">
                    <mxGeometry x="1902.5" y="176.87" width="30" height="25" as="geometry"/>
                </mxCell>
                <mxCell id="M5zCR2oHDIOOvsmji_0k-107" value="" style="shape=cube;whiteSpace=wrap;html=1;boundedLbl=1;backgroundOutline=1;darkOpacity=0.05;darkOpacity2=0.1;size=10;rotation=90;strokeWidth=2;fillColor=#0000FF;strokeColor=#33001A;" parent="1" vertex="1">
                    <mxGeometry x="1609.5" y="88.75" width="30" height="25" as="geometry"/>
                </mxCell>
                <mxCell id="M5zCR2oHDIOOvsmji_0k-108" value="" style="shape=cube;whiteSpace=wrap;html=1;boundedLbl=1;backgroundOutline=1;darkOpacity=0.05;darkOpacity2=0.1;size=10;rotation=90;fillColor=#0000FF;strokeWidth=2;strokeColor=#33001A;" parent="1" vertex="1">
                    <mxGeometry x="1624.5" y="108.75" width="30" height="25" as="geometry"/>
                </mxCell>
                <mxCell id="M5zCR2oHDIOOvsmji_0k-109" value="" style="shape=cube;whiteSpace=wrap;html=1;boundedLbl=1;backgroundOutline=1;darkOpacity=0.05;darkOpacity2=0.1;size=10;rotation=90;strokeWidth=2;fillColor=#00FF00;" parent="1" vertex="1">
                    <mxGeometry x="1599.5" y="98.75" width="30" height="25" as="geometry"/>
                </mxCell>
                <mxCell id="M5zCR2oHDIOOvsmji_0k-110" value="" style="shape=cube;whiteSpace=wrap;html=1;boundedLbl=1;backgroundOutline=1;darkOpacity=0.05;darkOpacity2=0.1;size=10;rotation=90;fillColor=#0000FF;strokeWidth=2;strokeColor=#33001A;" parent="1" vertex="1">
                    <mxGeometry x="1624.5" y="88.75" width="30" height="25" as="geometry"/>
                </mxCell>
                <mxCell id="M5zCR2oHDIOOvsmji_0k-111" value="" style="shape=cube;whiteSpace=wrap;html=1;boundedLbl=1;backgroundOutline=1;darkOpacity=0.05;darkOpacity2=0.1;size=10;rotation=90;fillColor=#00FF00;strokeWidth=2;" parent="1" vertex="1">
                    <mxGeometry x="1614.5" y="118.75" width="30" height="25" as="geometry"/>
                </mxCell>
                <mxCell id="M5zCR2oHDIOOvsmji_0k-112" value="" style="shape=cube;whiteSpace=wrap;html=1;boundedLbl=1;backgroundOutline=1;darkOpacity=0.05;darkOpacity2=0.1;size=10;rotation=90;fillColor=#00FF00;strokeWidth=2;" parent="1" vertex="1">
                    <mxGeometry x="1614.5" y="98.75" width="30" height="25" as="geometry"/>
                </mxCell>
                <mxCell id="M5zCR2oHDIOOvsmji_0k-113" value="2" style="shape=cube;whiteSpace=wrap;html=1;boundedLbl=1;backgroundOutline=1;darkOpacity=0.05;darkOpacity2=0.1;size=10;rotation=90;strokeWidth=2;fillColor=#FF0000;fontStyle=1;horizontal=0;" parent="1" vertex="1">
                    <mxGeometry x="1589.5" y="128.75" width="30" height="25" as="geometry"/>
                </mxCell>
                <mxCell id="M5zCR2oHDIOOvsmji_0k-114" value="0" style="shape=cube;whiteSpace=wrap;html=1;boundedLbl=1;backgroundOutline=1;darkOpacity=0.05;darkOpacity2=0.1;size=10;rotation=90;strokeWidth=2;fillColor=#FF0000;fontStyle=1;horizontal=0;" parent="1" vertex="1">
                    <mxGeometry x="1589.5" y="108.75" width="30" height="25" as="geometry"/>
                </mxCell>
                <mxCell id="M5zCR2oHDIOOvsmji_0k-115" value="3" style="shape=cube;whiteSpace=wrap;html=1;boundedLbl=1;backgroundOutline=1;darkOpacity=0.05;darkOpacity2=0.1;size=10;rotation=90;strokeWidth=2;fillColor=#FF0000;fontStyle=1;horizontal=0;" parent="1" vertex="1">
                    <mxGeometry x="1604.5" y="128.75" width="30" height="25" as="geometry"/>
                </mxCell>
                <mxCell id="M5zCR2oHDIOOvsmji_0k-116" value="1" style="shape=cube;whiteSpace=wrap;html=1;boundedLbl=1;backgroundOutline=1;darkOpacity=0.05;darkOpacity2=0.1;size=10;rotation=90;strokeWidth=2;fillColor=#FF0000;fontStyle=1;horizontal=0;" parent="1" vertex="1">
                    <mxGeometry x="1604.5" y="108.75" width="30" height="25" as="geometry"/>
                </mxCell>
                <mxCell id="M5zCR2oHDIOOvsmji_0k-117" value="*" style="ellipse;whiteSpace=wrap;html=1;aspect=fixed;strokeColor=#000000;fillColor=#FFFFFF;verticalAlign=top;fontColor=#333333;strokeWidth=2;fontStyle=1" parent="1" vertex="1">
                    <mxGeometry x="1515" y="201.87" width="20" height="20" as="geometry"/>
                </mxCell>
                <mxCell id="M5zCR2oHDIOOvsmji_0k-118" value="" style="shape=cube;whiteSpace=wrap;html=1;boundedLbl=1;backgroundOutline=1;darkOpacity=0.05;darkOpacity2=0.1;size=10;rotation=90;strokeWidth=2;fillColor=#0000FF;strokeColor=#33001A;" parent="1" vertex="1">
                    <mxGeometry x="1609.5" y="158.75" width="30" height="25" as="geometry"/>
                </mxCell>
                <mxCell id="M5zCR2oHDIOOvsmji_0k-119" value="" style="shape=cube;whiteSpace=wrap;html=1;boundedLbl=1;backgroundOutline=1;darkOpacity=0.05;darkOpacity2=0.1;size=10;rotation=90;fillColor=#0000FF;strokeWidth=2;strokeColor=#33001A;" parent="1" vertex="1">
                    <mxGeometry x="1624.5" y="178.75" width="30" height="25" as="geometry"/>
                </mxCell>
                <mxCell id="M5zCR2oHDIOOvsmji_0k-120" value="" style="shape=cube;whiteSpace=wrap;html=1;boundedLbl=1;backgroundOutline=1;darkOpacity=0.05;darkOpacity2=0.1;size=10;rotation=90;strokeWidth=2;fillColor=#00FF00;" parent="1" vertex="1">
                    <mxGeometry x="1599.5" y="168.75" width="30" height="25" as="geometry"/>
                </mxCell>
                <mxCell id="M5zCR2oHDIOOvsmji_0k-121" value="" style="shape=cube;whiteSpace=wrap;html=1;boundedLbl=1;backgroundOutline=1;darkOpacity=0.05;darkOpacity2=0.1;size=10;rotation=90;fillColor=#0000FF;strokeWidth=2;strokeColor=#33001A;" parent="1" vertex="1">
                    <mxGeometry x="1624.5" y="158.75" width="30" height="25" as="geometry"/>
                </mxCell>
                <mxCell id="M5zCR2oHDIOOvsmji_0k-122" value="" style="shape=cube;whiteSpace=wrap;html=1;boundedLbl=1;backgroundOutline=1;darkOpacity=0.05;darkOpacity2=0.1;size=10;rotation=90;fillColor=#00FF00;strokeWidth=2;" parent="1" vertex="1">
                    <mxGeometry x="1614.5" y="188.75" width="30" height="25" as="geometry"/>
                </mxCell>
                <mxCell id="M5zCR2oHDIOOvsmji_0k-123" value="" style="shape=cube;whiteSpace=wrap;html=1;boundedLbl=1;backgroundOutline=1;darkOpacity=0.05;darkOpacity2=0.1;size=10;rotation=90;fillColor=#00FF00;strokeWidth=2;" parent="1" vertex="1">
                    <mxGeometry x="1614.5" y="168.75" width="30" height="25" as="geometry"/>
                </mxCell>
                <mxCell id="M5zCR2oHDIOOvsmji_0k-124" value="6" style="shape=cube;whiteSpace=wrap;html=1;boundedLbl=1;backgroundOutline=1;darkOpacity=0.05;darkOpacity2=0.1;size=10;rotation=90;strokeWidth=2;fillColor=#FF0000;fontStyle=1;horizontal=0;" parent="1" vertex="1">
                    <mxGeometry x="1589.5" y="198.75" width="30" height="25" as="geometry"/>
                </mxCell>
                <mxCell id="M5zCR2oHDIOOvsmji_0k-125" value="4" style="shape=cube;whiteSpace=wrap;html=1;boundedLbl=1;backgroundOutline=1;darkOpacity=0.05;darkOpacity2=0.1;size=10;rotation=90;strokeWidth=2;fillColor=#FF0000;fontStyle=1;horizontal=0;" parent="1" vertex="1">
                    <mxGeometry x="1589.5" y="178.75" width="30" height="25" as="geometry"/>
                </mxCell>
                <mxCell id="M5zCR2oHDIOOvsmji_0k-126" value="7" style="shape=cube;whiteSpace=wrap;html=1;boundedLbl=1;backgroundOutline=1;darkOpacity=0.05;darkOpacity2=0.1;size=10;rotation=90;strokeWidth=2;fillColor=#FF0000;fontStyle=1;horizontal=0;" parent="1" vertex="1">
                    <mxGeometry x="1604.5" y="198.75" width="30" height="25" as="geometry"/>
                </mxCell>
                <mxCell id="M5zCR2oHDIOOvsmji_0k-127" value="5" style="shape=cube;whiteSpace=wrap;html=1;boundedLbl=1;backgroundOutline=1;darkOpacity=0.05;darkOpacity2=0.1;size=10;rotation=90;strokeWidth=2;fillColor=#FF0000;fontStyle=1;horizontal=0;" parent="1" vertex="1">
                    <mxGeometry x="1604.5" y="178.75" width="30" height="25" as="geometry"/>
                </mxCell>
                <mxCell id="M5zCR2oHDIOOvsmji_0k-128" value="" style="shape=cube;whiteSpace=wrap;html=1;boundedLbl=1;backgroundOutline=1;darkOpacity=0.05;darkOpacity2=0.1;size=10;rotation=90;strokeWidth=2;fillColor=#0000FF;strokeColor=#33001A;" parent="1" vertex="1">
                    <mxGeometry x="1609.5" y="226.25" width="30" height="25" as="geometry"/>
                </mxCell>
                <mxCell id="M5zCR2oHDIOOvsmji_0k-129" value="" style="shape=cube;whiteSpace=wrap;html=1;boundedLbl=1;backgroundOutline=1;darkOpacity=0.05;darkOpacity2=0.1;size=10;rotation=90;fillColor=#0000FF;strokeWidth=2;strokeColor=#33001A;" parent="1" vertex="1">
                    <mxGeometry x="1624.5" y="246.25" width="30" height="25" as="geometry"/>
                </mxCell>
                <mxCell id="M5zCR2oHDIOOvsmji_0k-130" value="" style="shape=cube;whiteSpace=wrap;html=1;boundedLbl=1;backgroundOutline=1;darkOpacity=0.05;darkOpacity2=0.1;size=10;rotation=90;strokeWidth=2;fillColor=#00FF00;" parent="1" vertex="1">
                    <mxGeometry x="1599.5" y="236.25" width="30" height="25" as="geometry"/>
                </mxCell>
                <mxCell id="M5zCR2oHDIOOvsmji_0k-131" value="" style="shape=cube;whiteSpace=wrap;html=1;boundedLbl=1;backgroundOutline=1;darkOpacity=0.05;darkOpacity2=0.1;size=10;rotation=90;fillColor=#0000FF;strokeWidth=2;strokeColor=#33001A;" parent="1" vertex="1">
                    <mxGeometry x="1624.5" y="226.25" width="30" height="25" as="geometry"/>
                </mxCell>
                <mxCell id="M5zCR2oHDIOOvsmji_0k-132" value="" style="shape=cube;whiteSpace=wrap;html=1;boundedLbl=1;backgroundOutline=1;darkOpacity=0.05;darkOpacity2=0.1;size=10;rotation=90;fillColor=#00FF00;strokeWidth=2;" parent="1" vertex="1">
                    <mxGeometry x="1614.5" y="256.25" width="30" height="25" as="geometry"/>
                </mxCell>
                <mxCell id="M5zCR2oHDIOOvsmji_0k-133" value="" style="shape=cube;whiteSpace=wrap;html=1;boundedLbl=1;backgroundOutline=1;darkOpacity=0.05;darkOpacity2=0.1;size=10;rotation=90;fillColor=#00FF00;strokeWidth=2;" parent="1" vertex="1">
                    <mxGeometry x="1614.5" y="236.25" width="30" height="25" as="geometry"/>
                </mxCell>
                <mxCell id="M5zCR2oHDIOOvsmji_0k-134" value="10" style="shape=cube;whiteSpace=wrap;html=1;boundedLbl=1;backgroundOutline=1;darkOpacity=0.05;darkOpacity2=0.1;size=10;rotation=90;strokeWidth=2;fillColor=#FF0000;fontStyle=1;horizontal=0;" parent="1" vertex="1">
                    <mxGeometry x="1589.5" y="266.25" width="30" height="25" as="geometry"/>
                </mxCell>
                <mxCell id="M5zCR2oHDIOOvsmji_0k-135" value="8" style="shape=cube;whiteSpace=wrap;html=1;boundedLbl=1;backgroundOutline=1;darkOpacity=0.05;darkOpacity2=0.1;size=10;rotation=90;strokeWidth=2;fillColor=#FF0000;fontStyle=1;horizontal=0;" parent="1" vertex="1">
                    <mxGeometry x="1589.5" y="246.25" width="30" height="25" as="geometry"/>
                </mxCell>
                <mxCell id="M5zCR2oHDIOOvsmji_0k-136" value="11" style="shape=cube;whiteSpace=wrap;html=1;boundedLbl=1;backgroundOutline=1;darkOpacity=0.05;darkOpacity2=0.1;size=10;rotation=90;strokeWidth=2;fillColor=#FF0000;fontStyle=1;horizontal=0;" parent="1" vertex="1">
                    <mxGeometry x="1604.5" y="266.25" width="30" height="25" as="geometry"/>
                </mxCell>
                <mxCell id="M5zCR2oHDIOOvsmji_0k-137" value="9" style="shape=cube;whiteSpace=wrap;html=1;boundedLbl=1;backgroundOutline=1;darkOpacity=0.05;darkOpacity2=0.1;size=10;rotation=90;strokeWidth=2;fillColor=#FF0000;fontStyle=1;horizontal=0;" parent="1" vertex="1">
                    <mxGeometry x="1604.5" y="246.25" width="30" height="25" as="geometry"/>
                </mxCell>
                <mxCell id="M5zCR2oHDIOOvsmji_0k-138" style="edgeStyle=none;rounded=1;orthogonalLoop=1;jettySize=auto;html=1;strokeWidth=2;" parent="1" edge="1">
                    <mxGeometry relative="1" as="geometry">
                        <mxPoint x="1834.5" y="212.92000000000007" as="targetPoint"/>
                        <mxPoint x="1744.5" y="213.17000000000007" as="sourcePoint"/>
                        <Array as="points">
                            <mxPoint x="1814.5" y="213.17000000000002"/>
                        </Array>
                    </mxGeometry>
                </mxCell>
                <mxCell id="M5zCR2oHDIOOvsmji_0k-139" value="F0" style="text;html=1;strokeColor=none;fillColor=none;align=center;verticalAlign=middle;whiteSpace=wrap;rounded=0;fontStyle=1" parent="1" vertex="1">
                    <mxGeometry x="1661.5" y="90" width="60" height="30" as="geometry"/>
                </mxCell>
                <mxCell id="M5zCR2oHDIOOvsmji_0k-140" value="Conv2D" style="text;html=1;strokeColor=none;fillColor=none;align=center;verticalAlign=middle;whiteSpace=wrap;rounded=0;fontStyle=1" parent="1" vertex="1">
                    <mxGeometry x="1494.5" y="224.37" width="60" height="30" as="geometry"/>
                </mxCell>
                <mxCell id="M5zCR2oHDIOOvsmji_0k-141" value="" style="shape=curlyBracket;whiteSpace=wrap;html=1;rounded=1;flipH=1;strokeColor=#000000;strokeWidth=2;fillColor=#FFFFFF;rotation=-180;" parent="1" vertex="1">
                    <mxGeometry x="1319.5" y="180.62" width="20" height="75" as="geometry"/>
                </mxCell>
                <mxCell id="M5zCR2oHDIOOvsmji_0k-142" value="Input Feature Maps" style="text;html=1;strokeColor=none;fillColor=none;align=center;verticalAlign=middle;whiteSpace=wrap;rounded=0;fontStyle=1" parent="1" vertex="1">
                    <mxGeometry x="1259.5" y="205.62" width="60" height="30" as="geometry"/>
                </mxCell>
                <mxCell id="M5zCR2oHDIOOvsmji_0k-143" value="" style="shape=curlyBracket;whiteSpace=wrap;html=1;rounded=1;flipH=1;strokeColor=#000000;strokeWidth=2;fillColor=#FFFFFF;" parent="1" vertex="1">
                    <mxGeometry x="1978" y="145" width="20" height="76.25" as="geometry"/>
                </mxCell>
                <mxCell id="M5zCR2oHDIOOvsmji_0k-144" value="Output Feature Map" style="text;html=1;strokeColor=none;fillColor=none;align=center;verticalAlign=middle;whiteSpace=wrap;rounded=0;fontStyle=1" parent="1" vertex="1">
                    <mxGeometry x="2009.5" y="168.12" width="60" height="30" as="geometry"/>
                </mxCell>
                <mxCell id="M5zCR2oHDIOOvsmji_0k-145" value="" style="shape=curlyBracket;whiteSpace=wrap;html=1;rounded=1;flipH=1;strokeColor=#000000;strokeWidth=2;fillColor=#FFFFFF;" parent="1" vertex="1">
                    <mxGeometry x="1662" y="80" width="20" height="50" as="geometry"/>
                </mxCell>
                <mxCell id="M5zCR2oHDIOOvsmji_0k-146" value="" style="shape=curlyBracket;whiteSpace=wrap;html=1;rounded=1;flipH=1;strokeColor=#000000;strokeWidth=2;fillColor=#FFFFFF;" parent="1" vertex="1">
                    <mxGeometry x="1662" y="150" width="20" height="50" as="geometry"/>
                </mxCell>
                <mxCell id="M5zCR2oHDIOOvsmji_0k-147" value="" style="shape=curlyBracket;whiteSpace=wrap;html=1;rounded=1;flipH=1;strokeColor=#000000;strokeWidth=2;fillColor=#FFFFFF;" parent="1" vertex="1">
                    <mxGeometry x="1662" y="220" width="20" height="50" as="geometry"/>
                </mxCell>
                <mxCell id="M5zCR2oHDIOOvsmji_0k-148" value="" style="shape=curlyBracket;whiteSpace=wrap;html=1;rounded=1;flipH=1;strokeColor=#000000;strokeWidth=2;fillColor=#FFFFFF;" parent="1" vertex="1">
                    <mxGeometry x="1662" y="281.25" width="20" height="50" as="geometry"/>
                </mxCell>
                <mxCell id="M5zCR2oHDIOOvsmji_0k-149" style="edgeStyle=none;rounded=1;orthogonalLoop=1;jettySize=auto;html=1;strokeWidth=2;" parent="1" edge="1">
                    <mxGeometry relative="1" as="geometry">
                        <mxPoint x="1409.5" y="461.25" as="targetPoint"/>
                        <mxPoint x="1409.5" y="271.25" as="sourcePoint"/>
                        <Array as="points"/>
                    </mxGeometry>
                </mxCell>
                <mxCell id="M5zCR2oHDIOOvsmji_0k-150" style="edgeStyle=none;rounded=1;orthogonalLoop=1;jettySize=auto;html=1;strokeWidth=2;" parent="1" edge="1">
                    <mxGeometry relative="1" as="geometry">
                        <mxPoint x="1614.5" y="460.6199999999999" as="targetPoint"/>
                        <mxPoint x="1614.1100000000001" y="370.6199999999999" as="sourcePoint"/>
                        <Array as="points"/>
                    </mxGeometry>
                </mxCell>
                <mxCell id="M5zCR2oHDIOOvsmji_0k-151" style="edgeStyle=orthogonalEdgeStyle;rounded=1;orthogonalLoop=1;jettySize=auto;html=1;strokeWidth=2;" parent="1" edge="1">
                    <mxGeometry relative="1" as="geometry">
                        <mxPoint x="1914.5" y="278.6199999999999" as="targetPoint"/>
                        <mxPoint x="1864.5" y="600.6199999999999" as="sourcePoint"/>
                    </mxGeometry>
                </mxCell>
                <mxCell id="M5zCR2oHDIOOvsmji_0k-152" value="1" style="rounded=0;whiteSpace=wrap;html=1;fontSize=9;fontColor=#000000;strokeColor=#000000;strokeWidth=2;fillColor=#FF0000;gradientColor=none;fontStyle=1" parent="1" vertex="1">
                    <mxGeometry x="1240" y="520.62" width="20" height="20" as="geometry"/>
                </mxCell>
                <mxCell id="M5zCR2oHDIOOvsmji_0k-153" value="6" style="rounded=0;whiteSpace=wrap;html=1;fontSize=9;fontColor=#000000;strokeColor=#000000;strokeWidth=2;fillColor=#FF0000;gradientColor=none;fontStyle=1" parent="1" vertex="1">
                    <mxGeometry x="1280" y="520.62" width="20" height="20" as="geometry"/>
                </mxCell>
                <mxCell id="M5zCR2oHDIOOvsmji_0k-154" value="2" style="rounded=0;whiteSpace=wrap;html=1;fontSize=9;fontColor=#000000;strokeColor=#000000;strokeWidth=2;fillColor=#FF0000;gradientColor=none;fontStyle=1" parent="1" vertex="1">
                    <mxGeometry x="1240" y="540.62" width="20" height="20" as="geometry"/>
                </mxCell>
                <mxCell id="M5zCR2oHDIOOvsmji_0k-155" value="3" style="rounded=0;whiteSpace=wrap;html=1;fontSize=9;fontColor=#000000;strokeColor=#000000;strokeWidth=2;fillColor=#FF0000;gradientColor=none;fontStyle=1" parent="1" vertex="1">
                    <mxGeometry x="1240" y="560.62" width="20" height="20" as="geometry"/>
                </mxCell>
                <mxCell id="M5zCR2oHDIOOvsmji_0k-156" value="7" style="rounded=0;whiteSpace=wrap;html=1;fontSize=9;fontColor=#000000;strokeColor=#000000;strokeWidth=2;fillColor=#FF0000;gradientColor=none;fontStyle=1" parent="1" vertex="1">
                    <mxGeometry x="1280" y="540.62" width="20" height="20" as="geometry"/>
                </mxCell>
                <mxCell id="M5zCR2oHDIOOvsmji_0k-157" value="8" style="rounded=0;whiteSpace=wrap;html=1;fontSize=9;fontColor=#000000;strokeColor=#000000;strokeWidth=2;fillColor=#FF0000;gradientColor=none;fontStyle=1" parent="1" vertex="1">
                    <mxGeometry x="1280" y="560.62" width="20" height="20" as="geometry"/>
                </mxCell>
                <mxCell id="M5zCR2oHDIOOvsmji_0k-158" value="0" style="rounded=0;whiteSpace=wrap;html=1;fontSize=9;fontColor=#000000;strokeColor=#000000;strokeWidth=2;fillColor=#00FF00;gradientColor=none;fontStyle=1" parent="1" vertex="1">
                    <mxGeometry x="1320" y="500.62" width="20" height="20" as="geometry"/>
                </mxCell>
                <mxCell id="M5zCR2oHDIOOvsmji_0k-159" value="1" style="rounded=0;whiteSpace=wrap;html=1;fontSize=9;fontColor=#000000;strokeColor=#000000;strokeWidth=2;fillColor=#00FF00;gradientColor=none;fontStyle=1" parent="1" vertex="1">
                    <mxGeometry x="1340" y="500.62" width="20" height="20" as="geometry"/>
                </mxCell>
                <mxCell id="M5zCR2oHDIOOvsmji_0k-160" value="2" style="rounded=0;whiteSpace=wrap;html=1;fontSize=9;fontColor=#000000;strokeColor=#000000;strokeWidth=2;fillColor=#00FF00;gradientColor=none;fontStyle=1" parent="1" vertex="1">
                    <mxGeometry x="1340" y="520.62" width="20" height="20" as="geometry"/>
                </mxCell>
                <mxCell id="M5zCR2oHDIOOvsmji_0k-161" value="3" style="rounded=0;whiteSpace=wrap;html=1;fontSize=9;fontColor=#000000;strokeColor=#000000;strokeWidth=2;fillColor=#00FF00;gradientColor=none;fontStyle=1" parent="1" vertex="1">
                    <mxGeometry x="1340" y="540.62" width="20" height="20" as="geometry"/>
                </mxCell>
                <mxCell id="M5zCR2oHDIOOvsmji_0k-162" value="4" style="rounded=0;whiteSpace=wrap;html=1;fontSize=9;fontColor=#000000;strokeColor=#000000;strokeWidth=2;fillColor=#00FF00;gradientColor=none;fontStyle=1" parent="1" vertex="1">
                    <mxGeometry x="1340" y="560.62" width="20" height="20" as="geometry"/>
                </mxCell>
                <mxCell id="M5zCR2oHDIOOvsmji_0k-163" value="5" style="rounded=0;whiteSpace=wrap;html=1;fontSize=9;fontColor=#000000;strokeColor=#000000;strokeWidth=2;fillColor=#00FF00;gradientColor=none;fontStyle=1" parent="1" vertex="1">
                    <mxGeometry x="1360" y="500.62" width="20" height="20" as="geometry"/>
                </mxCell>
                <mxCell id="M5zCR2oHDIOOvsmji_0k-164" value="6" style="rounded=0;whiteSpace=wrap;html=1;fontSize=9;fontColor=#000000;strokeColor=#000000;strokeWidth=2;fillColor=#00FF00;gradientColor=none;fontStyle=1" parent="1" vertex="1">
                    <mxGeometry x="1380" y="500.62" width="20" height="20" as="geometry"/>
                </mxCell>
                <mxCell id="M5zCR2oHDIOOvsmji_0k-165" value="7" style="rounded=0;whiteSpace=wrap;html=1;fontSize=9;fontColor=#000000;strokeColor=#000000;strokeWidth=2;fillColor=#00FF00;gradientColor=none;fontStyle=1" parent="1" vertex="1">
                    <mxGeometry x="1380" y="520.62" width="20" height="20" as="geometry"/>
                </mxCell>
                <mxCell id="M5zCR2oHDIOOvsmji_0k-166" value="8" style="rounded=0;whiteSpace=wrap;html=1;fontSize=9;fontColor=#000000;strokeColor=#000000;strokeWidth=2;fillColor=#00FF00;gradientColor=none;fontStyle=1" parent="1" vertex="1">
                    <mxGeometry x="1380" y="540.62" width="20" height="20" as="geometry"/>
                </mxCell>
                <mxCell id="M5zCR2oHDIOOvsmji_0k-167" value="9" style="rounded=0;whiteSpace=wrap;html=1;fontSize=9;fontColor=#000000;strokeColor=#000000;strokeWidth=2;fillColor=#00FF00;gradientColor=none;fontStyle=1" parent="1" vertex="1">
                    <mxGeometry x="1380" y="560.62" width="20" height="20" as="geometry"/>
                </mxCell>
                <mxCell id="M5zCR2oHDIOOvsmji_0k-168" value="1" style="rounded=0;whiteSpace=wrap;html=1;fontSize=9;fontColor=#000000;strokeColor=#000000;strokeWidth=2;fillColor=#00FF00;gradientColor=none;fontStyle=1" parent="1" vertex="1">
                    <mxGeometry x="1320" y="520.62" width="20" height="20" as="geometry"/>
                </mxCell>
                <mxCell id="M5zCR2oHDIOOvsmji_0k-169" value="6" style="rounded=0;whiteSpace=wrap;html=1;fontSize=9;fontColor=#000000;strokeColor=#000000;strokeWidth=2;fillColor=#00FF00;gradientColor=none;fontStyle=1" parent="1" vertex="1">
                    <mxGeometry x="1360" y="520.62" width="20" height="20" as="geometry"/>
                </mxCell>
                <mxCell id="M5zCR2oHDIOOvsmji_0k-170" value="2" style="rounded=0;whiteSpace=wrap;html=1;fontSize=9;fontColor=#000000;strokeColor=#000000;strokeWidth=2;fillColor=#00FF00;gradientColor=none;fontStyle=1" parent="1" vertex="1">
                    <mxGeometry x="1320" y="540.62" width="20" height="20" as="geometry"/>
                </mxCell>
                <mxCell id="M5zCR2oHDIOOvsmji_0k-171" value="3" style="rounded=0;whiteSpace=wrap;html=1;fontSize=9;fontColor=#000000;strokeColor=#000000;strokeWidth=2;fillColor=#00FF00;gradientColor=none;fontStyle=1" parent="1" vertex="1">
                    <mxGeometry x="1320" y="560.62" width="20" height="20" as="geometry"/>
                </mxCell>
                <mxCell id="M5zCR2oHDIOOvsmji_0k-172" value="7" style="rounded=0;whiteSpace=wrap;html=1;fontSize=9;fontColor=#000000;strokeColor=#000000;strokeWidth=2;fillColor=#00FF00;gradientColor=none;fontStyle=1" parent="1" vertex="1">
                    <mxGeometry x="1360" y="540.62" width="20" height="20" as="geometry"/>
                </mxCell>
                <mxCell id="M5zCR2oHDIOOvsmji_0k-173" value="8" style="rounded=0;whiteSpace=wrap;html=1;fontSize=9;fontColor=#000000;strokeColor=#000000;strokeWidth=2;fillColor=#00FF00;gradientColor=none;fontStyle=1" parent="1" vertex="1">
                    <mxGeometry x="1360" y="560.62" width="20" height="20" as="geometry"/>
                </mxCell>
                <mxCell id="M5zCR2oHDIOOvsmji_0k-174" value="0" style="rounded=0;whiteSpace=wrap;html=1;fontSize=9;fontColor=#000000;strokeColor=#000000;strokeWidth=2;fillColor=#0000FF;gradientColor=none;fontStyle=1" parent="1" vertex="1">
                    <mxGeometry x="1400" y="500.62" width="20" height="20" as="geometry"/>
                </mxCell>
                <mxCell id="M5zCR2oHDIOOvsmji_0k-175" value="1" style="rounded=0;whiteSpace=wrap;html=1;fontSize=9;fontColor=#000000;strokeColor=#000000;strokeWidth=2;fillColor=#0000FF;gradientColor=none;fontStyle=1" parent="1" vertex="1">
                    <mxGeometry x="1420" y="500.62" width="20" height="20" as="geometry"/>
                </mxCell>
                <mxCell id="M5zCR2oHDIOOvsmji_0k-176" value="2" style="rounded=0;whiteSpace=wrap;html=1;fontSize=9;fontColor=#000000;strokeColor=#000000;strokeWidth=2;fillColor=#0000FF;gradientColor=none;fontStyle=1" parent="1" vertex="1">
                    <mxGeometry x="1420" y="520.62" width="20" height="20" as="geometry"/>
                </mxCell>
                <mxCell id="M5zCR2oHDIOOvsmji_0k-177" value="3" style="rounded=0;whiteSpace=wrap;html=1;fontSize=9;fontColor=#000000;strokeColor=#000000;strokeWidth=2;fillColor=#0000FF;gradientColor=none;fontStyle=1" parent="1" vertex="1">
                    <mxGeometry x="1420" y="540.62" width="20" height="20" as="geometry"/>
                </mxCell>
                <mxCell id="M5zCR2oHDIOOvsmji_0k-178" value="4" style="rounded=0;whiteSpace=wrap;html=1;fontSize=9;fontColor=#000000;strokeColor=#000000;strokeWidth=2;fillColor=#0000FF;gradientColor=none;fontStyle=1" parent="1" vertex="1">
                    <mxGeometry x="1420" y="560.62" width="20" height="20" as="geometry"/>
                </mxCell>
                <mxCell id="M5zCR2oHDIOOvsmji_0k-179" value="5" style="rounded=0;whiteSpace=wrap;html=1;fontSize=9;fontColor=#000000;strokeColor=#000000;strokeWidth=2;fillColor=#0000FF;gradientColor=none;fontStyle=1" parent="1" vertex="1">
                    <mxGeometry x="1440" y="500.62" width="20" height="20" as="geometry"/>
                </mxCell>
                <mxCell id="M5zCR2oHDIOOvsmji_0k-180" value="6" style="rounded=0;whiteSpace=wrap;html=1;fontSize=9;fontColor=#000000;strokeColor=#000000;strokeWidth=2;fillColor=#0000FF;gradientColor=none;fontStyle=1" parent="1" vertex="1">
                    <mxGeometry x="1460" y="500.62" width="20" height="20" as="geometry"/>
                </mxCell>
                <mxCell id="M5zCR2oHDIOOvsmji_0k-181" value="7" style="rounded=0;whiteSpace=wrap;html=1;fontSize=9;fontColor=#000000;strokeColor=#000000;strokeWidth=2;fillColor=#0000FF;gradientColor=none;fontStyle=1" parent="1" vertex="1">
                    <mxGeometry x="1460" y="520.62" width="20" height="20" as="geometry"/>
                </mxCell>
                <mxCell id="M5zCR2oHDIOOvsmji_0k-182" value="8" style="rounded=0;whiteSpace=wrap;html=1;fontSize=9;fontColor=#000000;strokeColor=#000000;strokeWidth=2;fillColor=#0000FF;gradientColor=none;fontStyle=1" parent="1" vertex="1">
                    <mxGeometry x="1460" y="540.62" width="20" height="20" as="geometry"/>
                </mxCell>
                <mxCell id="M5zCR2oHDIOOvsmji_0k-183" value="9" style="rounded=0;whiteSpace=wrap;html=1;fontSize=9;fontColor=#000000;strokeColor=#000000;strokeWidth=2;fillColor=#0000FF;gradientColor=none;fontStyle=1" parent="1" vertex="1">
                    <mxGeometry x="1460" y="560.62" width="20" height="20" as="geometry"/>
                </mxCell>
                <mxCell id="M5zCR2oHDIOOvsmji_0k-184" value="1" style="rounded=0;whiteSpace=wrap;html=1;fontSize=9;fontColor=#000000;strokeColor=#000000;strokeWidth=2;fillColor=#0000FF;gradientColor=none;fontStyle=1" parent="1" vertex="1">
                    <mxGeometry x="1400" y="520.62" width="20" height="20" as="geometry"/>
                </mxCell>
                <mxCell id="M5zCR2oHDIOOvsmji_0k-185" value="6" style="rounded=0;whiteSpace=wrap;html=1;fontSize=9;fontColor=#000000;strokeColor=#000000;strokeWidth=2;fillColor=#0000FF;gradientColor=none;fontStyle=1" parent="1" vertex="1">
                    <mxGeometry x="1440" y="520.62" width="20" height="20" as="geometry"/>
                </mxCell>
                <mxCell id="M5zCR2oHDIOOvsmji_0k-186" value="2" style="rounded=0;whiteSpace=wrap;html=1;fontSize=9;fontColor=#000000;strokeColor=#000000;strokeWidth=2;fillColor=#0000FF;gradientColor=none;fontStyle=1" parent="1" vertex="1">
                    <mxGeometry x="1400" y="540.62" width="20" height="20" as="geometry"/>
                </mxCell>
                <mxCell id="M5zCR2oHDIOOvsmji_0k-187" value="3" style="rounded=0;whiteSpace=wrap;html=1;fontSize=9;fontColor=#000000;strokeColor=#000000;strokeWidth=2;fillColor=#0000FF;gradientColor=none;fontStyle=1" parent="1" vertex="1">
                    <mxGeometry x="1400" y="560.62" width="20" height="20" as="geometry"/>
                </mxCell>
                <mxCell id="M5zCR2oHDIOOvsmji_0k-188" value="7" style="rounded=0;whiteSpace=wrap;html=1;fontSize=9;fontColor=#000000;strokeColor=#000000;strokeWidth=2;fillColor=#0000FF;gradientColor=none;fontStyle=1" parent="1" vertex="1">
                    <mxGeometry x="1440" y="540.62" width="20" height="20" as="geometry"/>
                </mxCell>
                <mxCell id="M5zCR2oHDIOOvsmji_0k-189" value="8" style="rounded=0;whiteSpace=wrap;html=1;fontSize=9;fontColor=#000000;strokeColor=#000000;strokeWidth=2;fillColor=#0000FF;gradientColor=none;fontStyle=1" parent="1" vertex="1">
                    <mxGeometry x="1440" y="560.62" width="20" height="20" as="geometry"/>
                </mxCell>
                <mxCell id="M5zCR2oHDIOOvsmji_0k-190" value="5" style="rounded=0;whiteSpace=wrap;html=1;fontSize=9;fontColor=#000000;strokeColor=#000000;strokeWidth=2;fillColor=#FF0000;gradientColor=none;fontStyle=1" parent="1" vertex="1">
                    <mxGeometry x="1240" y="580.62" width="20" height="20" as="geometry"/>
                </mxCell>
                <mxCell id="M5zCR2oHDIOOvsmji_0k-191" value="6" style="rounded=0;whiteSpace=wrap;html=1;fontSize=9;fontColor=#000000;strokeColor=#000000;strokeWidth=2;fillColor=#FF0000;gradientColor=none;fontStyle=1" parent="1" vertex="1">
                    <mxGeometry x="1260" y="580.62" width="20" height="20" as="geometry"/>
                </mxCell>
                <mxCell id="M5zCR2oHDIOOvsmji_0k-192" value="7" style="rounded=0;whiteSpace=wrap;html=1;fontSize=9;fontColor=#000000;strokeColor=#000000;strokeWidth=2;fillColor=#FF0000;gradientColor=none;fontStyle=1" parent="1" vertex="1">
                    <mxGeometry x="1260" y="600.62" width="20" height="20" as="geometry"/>
                </mxCell>
                <mxCell id="M5zCR2oHDIOOvsmji_0k-193" value="8" style="rounded=0;whiteSpace=wrap;html=1;fontSize=9;fontColor=#000000;strokeColor=#000000;strokeWidth=2;fillColor=#FF0000;gradientColor=none;fontStyle=1" parent="1" vertex="1">
                    <mxGeometry x="1260" y="620.62" width="20" height="20" as="geometry"/>
                </mxCell>
                <mxCell id="M5zCR2oHDIOOvsmji_0k-194" value="9" style="rounded=0;whiteSpace=wrap;html=1;fontSize=9;fontColor=#000000;strokeColor=#000000;strokeWidth=2;fillColor=#FF0000;gradientColor=none;fontStyle=1" parent="1" vertex="1">
                    <mxGeometry x="1260" y="640.62" width="20" height="20" as="geometry"/>
                </mxCell>
                <mxCell id="M5zCR2oHDIOOvsmji_0k-195" value="6" style="rounded=0;whiteSpace=wrap;html=1;fontSize=9;fontColor=#000000;strokeColor=#000000;strokeWidth=2;fillColor=#FF0000;gradientColor=none;fontStyle=1" parent="1" vertex="1">
                    <mxGeometry x="1240" y="600.62" width="20" height="20" as="geometry"/>
                </mxCell>
                <mxCell id="M5zCR2oHDIOOvsmji_0k-196" value="7" style="rounded=0;whiteSpace=wrap;html=1;fontSize=9;fontColor=#000000;strokeColor=#000000;strokeWidth=2;fillColor=#FF0000;gradientColor=none;fontStyle=1" parent="1" vertex="1">
                    <mxGeometry x="1240" y="620.62" width="20" height="20" as="geometry"/>
                </mxCell>
                <mxCell id="M5zCR2oHDIOOvsmji_0k-197" value="8" style="rounded=0;whiteSpace=wrap;html=1;fontSize=9;fontColor=#000000;strokeColor=#000000;strokeWidth=2;fillColor=#FF0000;gradientColor=none;fontStyle=1" parent="1" vertex="1">
                    <mxGeometry x="1240" y="640.62" width="20" height="20" as="geometry"/>
                </mxCell>
                <mxCell id="M5zCR2oHDIOOvsmji_0k-198" value="10" style="rounded=0;whiteSpace=wrap;html=1;fontSize=9;fontColor=#000000;strokeColor=#000000;strokeWidth=2;fillColor=#FF0000;gradientColor=none;fontStyle=1" parent="1" vertex="1">
                    <mxGeometry x="1280" y="580.62" width="20" height="20" as="geometry"/>
                </mxCell>
                <mxCell id="M5zCR2oHDIOOvsmji_0k-199" value="11" style="rounded=0;whiteSpace=wrap;html=1;fontSize=9;fontColor=#000000;strokeColor=#000000;strokeWidth=2;fillColor=#FF0000;gradientColor=none;fontStyle=1" parent="1" vertex="1">
                    <mxGeometry x="1280" y="600.62" width="20" height="20" as="geometry"/>
                </mxCell>
                <mxCell id="M5zCR2oHDIOOvsmji_0k-200" value="12" style="rounded=0;whiteSpace=wrap;html=1;fontSize=9;fontColor=#000000;strokeColor=#000000;strokeWidth=2;fillColor=#FF0000;gradientColor=none;fontStyle=1" parent="1" vertex="1">
                    <mxGeometry x="1280" y="620.62" width="20" height="20" as="geometry"/>
                </mxCell>
                <mxCell id="M5zCR2oHDIOOvsmji_0k-201" value="13" style="rounded=0;whiteSpace=wrap;html=1;fontSize=9;fontColor=#000000;strokeColor=#000000;strokeWidth=2;fillColor=#FF0000;gradientColor=none;fontStyle=1" parent="1" vertex="1">
                    <mxGeometry x="1280" y="640.62" width="20" height="20" as="geometry"/>
                </mxCell>
                <mxCell id="M5zCR2oHDIOOvsmji_0k-202" value="14" style="rounded=0;whiteSpace=wrap;html=1;fontSize=9;fontColor=#000000;strokeColor=#000000;strokeWidth=2;fillColor=#FF0000;gradientColor=none;fontStyle=1" parent="1" vertex="1">
                    <mxGeometry x="1300" y="640.62" width="20" height="20" as="geometry"/>
                </mxCell>
                <mxCell id="M5zCR2oHDIOOvsmji_0k-203" value="11" style="rounded=0;whiteSpace=wrap;html=1;fontSize=9;fontColor=#000000;strokeColor=#000000;strokeWidth=2;fillColor=#FF0000;gradientColor=none;fontStyle=1" parent="1" vertex="1">
                    <mxGeometry x="1300" y="580.62" width="20" height="20" as="geometry"/>
                </mxCell>
                <mxCell id="M5zCR2oHDIOOvsmji_0k-204" value="12" style="rounded=0;whiteSpace=wrap;html=1;fontSize=9;fontColor=#000000;strokeColor=#000000;strokeWidth=2;fillColor=#FF0000;gradientColor=none;fontStyle=1" parent="1" vertex="1">
                    <mxGeometry x="1300" y="600.62" width="20" height="20" as="geometry"/>
                </mxCell>
                <mxCell id="M5zCR2oHDIOOvsmji_0k-205" value="13" style="rounded=0;whiteSpace=wrap;html=1;fontSize=9;fontColor=#000000;strokeColor=#000000;strokeWidth=2;fillColor=#FF0000;gradientColor=none;fontStyle=1" parent="1" vertex="1">
                    <mxGeometry x="1300" y="620.62" width="20" height="20" as="geometry"/>
                </mxCell>
                <mxCell id="M5zCR2oHDIOOvsmji_0k-206" value="5" style="rounded=0;whiteSpace=wrap;html=1;fontSize=9;fontColor=#000000;strokeColor=#000000;strokeWidth=2;fillColor=#00FF00;gradientColor=none;fontStyle=1" parent="1" vertex="1">
                    <mxGeometry x="1320" y="580.62" width="20" height="20" as="geometry"/>
                </mxCell>
                <mxCell id="M5zCR2oHDIOOvsmji_0k-207" value="6" style="rounded=0;whiteSpace=wrap;html=1;fontSize=9;fontColor=#000000;strokeColor=#000000;strokeWidth=2;fillColor=#00FF00;gradientColor=none;fontStyle=1" parent="1" vertex="1">
                    <mxGeometry x="1340" y="580.62" width="20" height="20" as="geometry"/>
                </mxCell>
                <mxCell id="M5zCR2oHDIOOvsmji_0k-208" value="7" style="rounded=0;whiteSpace=wrap;html=1;fontSize=9;fontColor=#000000;strokeColor=#000000;strokeWidth=2;fillColor=#00FF00;gradientColor=none;fontStyle=1" parent="1" vertex="1">
                    <mxGeometry x="1340" y="600.62" width="20" height="20" as="geometry"/>
                </mxCell>
                <mxCell id="M5zCR2oHDIOOvsmji_0k-209" value="8" style="rounded=0;whiteSpace=wrap;html=1;fontSize=9;fontColor=#000000;strokeColor=#000000;strokeWidth=2;fillColor=#00FF00;gradientColor=none;fontStyle=1" parent="1" vertex="1">
                    <mxGeometry x="1340" y="620.62" width="20" height="20" as="geometry"/>
                </mxCell>
                <mxCell id="M5zCR2oHDIOOvsmji_0k-210" value="9" style="rounded=0;whiteSpace=wrap;html=1;fontSize=9;fontColor=#000000;strokeColor=#000000;strokeWidth=2;fillColor=#00FF00;gradientColor=none;fontStyle=1" parent="1" vertex="1">
                    <mxGeometry x="1340" y="640.62" width="20" height="20" as="geometry"/>
                </mxCell>
                <mxCell id="M5zCR2oHDIOOvsmji_0k-211" value="6" style="rounded=0;whiteSpace=wrap;html=1;fontSize=9;fontColor=#000000;strokeColor=#000000;strokeWidth=2;fillColor=#00FF00;gradientColor=none;fontStyle=1" parent="1" vertex="1">
                    <mxGeometry x="1320" y="600.62" width="20" height="20" as="geometry"/>
                </mxCell>
                <mxCell id="M5zCR2oHDIOOvsmji_0k-212" value="7" style="rounded=0;whiteSpace=wrap;html=1;fontSize=9;fontColor=#000000;strokeColor=#000000;strokeWidth=2;fillColor=#00FF00;gradientColor=none;fontStyle=1" parent="1" vertex="1">
                    <mxGeometry x="1320" y="620.62" width="20" height="20" as="geometry"/>
                </mxCell>
                <mxCell id="M5zCR2oHDIOOvsmji_0k-213" value="8" style="rounded=0;whiteSpace=wrap;html=1;fontSize=9;fontColor=#000000;strokeColor=#000000;strokeWidth=2;fillColor=#00FF00;gradientColor=none;fontStyle=1" parent="1" vertex="1">
                    <mxGeometry x="1320" y="640.62" width="20" height="20" as="geometry"/>
                </mxCell>
                <mxCell id="M5zCR2oHDIOOvsmji_0k-214" value="10" style="rounded=0;whiteSpace=wrap;html=1;fontSize=9;fontColor=#000000;strokeColor=#000000;strokeWidth=2;fillColor=#00FF00;gradientColor=none;fontStyle=1" parent="1" vertex="1">
                    <mxGeometry x="1360" y="580.62" width="20" height="20" as="geometry"/>
                </mxCell>
                <mxCell id="M5zCR2oHDIOOvsmji_0k-215" value="11" style="rounded=0;whiteSpace=wrap;html=1;fontSize=9;fontColor=#000000;strokeColor=#000000;strokeWidth=2;fillColor=#00FF00;gradientColor=none;fontStyle=1" parent="1" vertex="1">
                    <mxGeometry x="1360" y="600.62" width="20" height="20" as="geometry"/>
                </mxCell>
                <mxCell id="M5zCR2oHDIOOvsmji_0k-216" value="12" style="rounded=0;whiteSpace=wrap;html=1;fontSize=9;fontColor=#000000;strokeColor=#000000;strokeWidth=2;fillColor=#00FF00;gradientColor=none;fontStyle=1" parent="1" vertex="1">
                    <mxGeometry x="1360" y="620.62" width="20" height="20" as="geometry"/>
                </mxCell>
                <mxCell id="M5zCR2oHDIOOvsmji_0k-217" value="13" style="rounded=0;whiteSpace=wrap;html=1;fontSize=9;fontColor=#000000;strokeColor=#000000;strokeWidth=2;fillColor=#00FF00;gradientColor=none;fontStyle=1" parent="1" vertex="1">
                    <mxGeometry x="1360" y="640.62" width="20" height="20" as="geometry"/>
                </mxCell>
                <mxCell id="M5zCR2oHDIOOvsmji_0k-218" value="14" style="rounded=0;whiteSpace=wrap;html=1;fontSize=9;fontColor=#000000;strokeColor=#000000;strokeWidth=2;fillColor=#00FF00;gradientColor=none;fontStyle=1" parent="1" vertex="1">
                    <mxGeometry x="1380" y="640.62" width="20" height="20" as="geometry"/>
                </mxCell>
                <mxCell id="M5zCR2oHDIOOvsmji_0k-219" value="11" style="rounded=0;whiteSpace=wrap;html=1;fontSize=9;fontColor=#000000;strokeColor=#000000;strokeWidth=2;fillColor=#00FF00;gradientColor=none;fontStyle=1" parent="1" vertex="1">
                    <mxGeometry x="1380" y="580.62" width="20" height="20" as="geometry"/>
                </mxCell>
                <mxCell id="M5zCR2oHDIOOvsmji_0k-220" value="12" style="rounded=0;whiteSpace=wrap;html=1;fontSize=9;fontColor=#000000;strokeColor=#000000;strokeWidth=2;fillColor=#00FF00;gradientColor=none;fontStyle=1" parent="1" vertex="1">
                    <mxGeometry x="1380" y="600.62" width="20" height="20" as="geometry"/>
                </mxCell>
                <mxCell id="M5zCR2oHDIOOvsmji_0k-221" value="13" style="rounded=0;whiteSpace=wrap;html=1;fontSize=9;fontColor=#000000;strokeColor=#000000;strokeWidth=2;fillColor=#00FF00;gradientColor=none;fontStyle=1" parent="1" vertex="1">
                    <mxGeometry x="1380" y="620.62" width="20" height="20" as="geometry"/>
                </mxCell>
                <mxCell id="M5zCR2oHDIOOvsmji_0k-222" value="5" style="rounded=0;whiteSpace=wrap;html=1;fontSize=9;fontColor=#000000;strokeColor=#000000;strokeWidth=2;fillColor=#0000FF;gradientColor=none;fontStyle=1" parent="1" vertex="1">
                    <mxGeometry x="1400" y="580.62" width="20" height="20" as="geometry"/>
                </mxCell>
                <mxCell id="M5zCR2oHDIOOvsmji_0k-223" value="6" style="rounded=0;whiteSpace=wrap;html=1;fontSize=9;fontColor=#000000;strokeColor=#000000;strokeWidth=2;fillColor=#0000FF;gradientColor=none;fontStyle=1" parent="1" vertex="1">
                    <mxGeometry x="1420" y="580.62" width="20" height="20" as="geometry"/>
                </mxCell>
                <mxCell id="M5zCR2oHDIOOvsmji_0k-224" value="7" style="rounded=0;whiteSpace=wrap;html=1;fontSize=9;fontColor=#000000;strokeColor=#000000;strokeWidth=2;fillColor=#0000FF;gradientColor=none;fontStyle=1" parent="1" vertex="1">
                    <mxGeometry x="1420" y="600.62" width="20" height="20" as="geometry"/>
                </mxCell>
                <mxCell id="M5zCR2oHDIOOvsmji_0k-225" value="8" style="rounded=0;whiteSpace=wrap;html=1;fontSize=9;fontColor=#000000;strokeColor=#000000;strokeWidth=2;fillColor=#0000FF;gradientColor=none;fontStyle=1" parent="1" vertex="1">
                    <mxGeometry x="1420" y="620.62" width="20" height="20" as="geometry"/>
                </mxCell>
                <mxCell id="M5zCR2oHDIOOvsmji_0k-226" value="9" style="rounded=0;whiteSpace=wrap;html=1;fontSize=9;fontColor=#000000;strokeColor=#000000;strokeWidth=2;fillColor=#0000FF;gradientColor=none;fontStyle=1" parent="1" vertex="1">
                    <mxGeometry x="1420" y="640.62" width="20" height="20" as="geometry"/>
                </mxCell>
                <mxCell id="M5zCR2oHDIOOvsmji_0k-227" value="6" style="rounded=0;whiteSpace=wrap;html=1;fontSize=9;fontColor=#000000;strokeColor=#000000;strokeWidth=2;fillColor=#0000FF;gradientColor=none;fontStyle=1" parent="1" vertex="1">
                    <mxGeometry x="1400" y="600.62" width="20" height="20" as="geometry"/>
                </mxCell>
                <mxCell id="M5zCR2oHDIOOvsmji_0k-228" value="7" style="rounded=0;whiteSpace=wrap;html=1;fontSize=9;fontColor=#000000;strokeColor=#000000;strokeWidth=2;fillColor=#0000FF;gradientColor=none;fontStyle=1" parent="1" vertex="1">
                    <mxGeometry x="1400" y="620.62" width="20" height="20" as="geometry"/>
                </mxCell>
                <mxCell id="M5zCR2oHDIOOvsmji_0k-229" value="8" style="rounded=0;whiteSpace=wrap;html=1;fontSize=9;fontColor=#000000;strokeColor=#000000;strokeWidth=2;fillColor=#0000FF;gradientColor=none;fontStyle=1" parent="1" vertex="1">
                    <mxGeometry x="1400" y="640.62" width="20" height="20" as="geometry"/>
                </mxCell>
                <mxCell id="M5zCR2oHDIOOvsmji_0k-230" value="10" style="rounded=0;whiteSpace=wrap;html=1;fontSize=9;fontColor=#000000;strokeColor=#000000;strokeWidth=2;fillColor=#0000FF;gradientColor=none;fontStyle=1" parent="1" vertex="1">
                    <mxGeometry x="1440" y="580.62" width="20" height="20" as="geometry"/>
                </mxCell>
                <mxCell id="M5zCR2oHDIOOvsmji_0k-231" value="11" style="rounded=0;whiteSpace=wrap;html=1;fontSize=9;fontColor=#000000;strokeColor=#000000;strokeWidth=2;fillColor=#0000FF;gradientColor=none;fontStyle=1" parent="1" vertex="1">
                    <mxGeometry x="1440" y="600.62" width="20" height="20" as="geometry"/>
                </mxCell>
                <mxCell id="M5zCR2oHDIOOvsmji_0k-232" value="12" style="rounded=0;whiteSpace=wrap;html=1;fontSize=9;fontColor=#000000;strokeColor=#000000;strokeWidth=2;fillColor=#0000FF;gradientColor=none;fontStyle=1" parent="1" vertex="1">
                    <mxGeometry x="1440" y="620.62" width="20" height="20" as="geometry"/>
                </mxCell>
                <mxCell id="M5zCR2oHDIOOvsmji_0k-233" value="13" style="rounded=0;whiteSpace=wrap;html=1;fontSize=9;fontColor=#000000;strokeColor=#000000;strokeWidth=2;fillColor=#0000FF;gradientColor=none;fontStyle=1" parent="1" vertex="1">
                    <mxGeometry x="1440" y="640.62" width="20" height="20" as="geometry"/>
                </mxCell>
                <mxCell id="M5zCR2oHDIOOvsmji_0k-234" value="14" style="rounded=0;whiteSpace=wrap;html=1;fontSize=9;fontColor=#000000;strokeColor=#000000;strokeWidth=2;fillColor=#0000FF;gradientColor=none;fontStyle=1" parent="1" vertex="1">
                    <mxGeometry x="1460" y="640.62" width="20" height="20" as="geometry"/>
                </mxCell>
                <mxCell id="M5zCR2oHDIOOvsmji_0k-235" value="11" style="rounded=0;whiteSpace=wrap;html=1;fontSize=9;fontColor=#000000;strokeColor=#000000;strokeWidth=2;fillColor=#0000FF;gradientColor=none;fontStyle=1" parent="1" vertex="1">
                    <mxGeometry x="1460" y="580.62" width="20" height="20" as="geometry"/>
                </mxCell>
                <mxCell id="M5zCR2oHDIOOvsmji_0k-236" value="12" style="rounded=0;whiteSpace=wrap;html=1;fontSize=9;fontColor=#000000;strokeColor=#000000;strokeWidth=2;fillColor=#0000FF;gradientColor=none;fontStyle=1" parent="1" vertex="1">
                    <mxGeometry x="1460" y="600.62" width="20" height="20" as="geometry"/>
                </mxCell>
                <mxCell id="M5zCR2oHDIOOvsmji_0k-237" value="13" style="rounded=0;whiteSpace=wrap;html=1;fontSize=9;fontColor=#000000;strokeColor=#000000;strokeWidth=2;fillColor=#0000FF;gradientColor=none;fontStyle=1" parent="1" vertex="1">
                    <mxGeometry x="1460" y="620.62" width="20" height="20" as="geometry"/>
                </mxCell>
                <mxCell id="M5zCR2oHDIOOvsmji_0k-238" value="0" style="rounded=0;whiteSpace=wrap;html=1;fontSize=9;fontColor=#000000;strokeColor=#000000;strokeWidth=2;fillColor=#FF0000;gradientColor=none;fontStyle=1;rotation=90;horizontal=0;" parent="1" vertex="1">
                    <mxGeometry x="1582.5" y="500.62" width="20" height="20" as="geometry"/>
                </mxCell>
                <mxCell id="M5zCR2oHDIOOvsmji_0k-239" value="1" style="rounded=0;whiteSpace=wrap;html=1;fontSize=9;fontColor=#000000;strokeColor=#000000;strokeWidth=2;fillColor=#FF0000;gradientColor=none;fontStyle=1;rotation=90;horizontal=0;" parent="1" vertex="1">
                    <mxGeometry x="1582.5" y="520.62" width="20" height="20" as="geometry"/>
                </mxCell>
                <mxCell id="M5zCR2oHDIOOvsmji_0k-240" value="2" style="rounded=0;whiteSpace=wrap;html=1;fontSize=9;fontColor=#000000;strokeColor=#000000;strokeWidth=2;fillColor=#FF0000;gradientColor=none;fontStyle=1;rotation=90;horizontal=0;" parent="1" vertex="1">
                    <mxGeometry x="1582.5" y="540.62" width="20" height="20" as="geometry"/>
                </mxCell>
                <mxCell id="M5zCR2oHDIOOvsmji_0k-241" value="3" style="rounded=0;whiteSpace=wrap;html=1;fontSize=9;fontColor=#000000;strokeColor=#000000;strokeWidth=2;fillColor=#FF0000;gradientColor=none;fontStyle=1;rotation=90;horizontal=0;" parent="1" vertex="1">
                    <mxGeometry x="1582.5" y="560.62" width="20" height="20" as="geometry"/>
                </mxCell>
                <mxCell id="M5zCR2oHDIOOvsmji_0k-242" value="0" style="rounded=0;whiteSpace=wrap;html=1;fontSize=9;fontColor=#000000;strokeColor=#000000;strokeWidth=2;fillColor=#00FF00;gradientColor=none;fontStyle=1;rotation=90;horizontal=0;" parent="1" vertex="1">
                    <mxGeometry x="1582.5" y="580.62" width="20" height="20" as="geometry"/>
                </mxCell>
                <mxCell id="M5zCR2oHDIOOvsmji_0k-243" value="1" style="rounded=0;whiteSpace=wrap;html=1;fontSize=9;fontColor=#000000;strokeColor=#000000;strokeWidth=2;fillColor=#00FF00;gradientColor=none;fontStyle=1;rotation=90;horizontal=0;" parent="1" vertex="1">
                    <mxGeometry x="1582.5" y="600.62" width="20" height="20" as="geometry"/>
                </mxCell>
                <mxCell id="M5zCR2oHDIOOvsmji_0k-244" value="2" style="rounded=0;whiteSpace=wrap;html=1;fontSize=9;fontColor=#000000;strokeColor=#000000;strokeWidth=2;fillColor=#00FF00;gradientColor=none;fontStyle=1;rotation=90;horizontal=0;" parent="1" vertex="1">
                    <mxGeometry x="1582.5" y="620.62" width="20" height="20" as="geometry"/>
                </mxCell>
                <mxCell id="M5zCR2oHDIOOvsmji_0k-245" value="3" style="rounded=0;whiteSpace=wrap;html=1;fontSize=9;fontColor=#000000;strokeColor=#000000;strokeWidth=2;fillColor=#00FF00;gradientColor=none;fontStyle=1;rotation=90;horizontal=0;" parent="1" vertex="1">
                    <mxGeometry x="1582.5" y="640.62" width="20" height="20" as="geometry"/>
                </mxCell>
                <mxCell id="M5zCR2oHDIOOvsmji_0k-246" value="0" style="rounded=0;whiteSpace=wrap;html=1;fontSize=9;fontColor=#000000;strokeColor=#000000;strokeWidth=2;fillColor=#0000FF;gradientColor=none;fontStyle=1;rotation=90;horizontal=0;" parent="1" vertex="1">
                    <mxGeometry x="1582.5" y="660.62" width="20" height="20" as="geometry"/>
                </mxCell>
                <mxCell id="M5zCR2oHDIOOvsmji_0k-247" value="1" style="rounded=0;whiteSpace=wrap;html=1;fontSize=9;fontColor=#000000;strokeColor=#000000;strokeWidth=2;fillColor=#0000FF;gradientColor=none;fontStyle=1;rotation=90;horizontal=0;" parent="1" vertex="1">
                    <mxGeometry x="1582.5" y="680.62" width="20" height="20" as="geometry"/>
                </mxCell>
                <mxCell id="M5zCR2oHDIOOvsmji_0k-248" value="2" style="rounded=0;whiteSpace=wrap;html=1;fontSize=9;fontColor=#000000;strokeColor=#000000;strokeWidth=2;fillColor=#0000FF;gradientColor=none;fontStyle=1;rotation=90;horizontal=0;" parent="1" vertex="1">
                    <mxGeometry x="1582.5" y="700.62" width="20" height="20" as="geometry"/>
                </mxCell>
                <mxCell id="M5zCR2oHDIOOvsmji_0k-249" value="3" style="rounded=0;whiteSpace=wrap;html=1;fontSize=9;fontColor=#000000;strokeColor=#000000;strokeWidth=2;fillColor=#0000FF;gradientColor=none;fontStyle=1;rotation=90;horizontal=0;" parent="1" vertex="1">
                    <mxGeometry x="1582.5" y="720.62" width="20" height="20" as="geometry"/>
                </mxCell>
                <mxCell id="M5zCR2oHDIOOvsmji_0k-250" value="4" style="rounded=0;whiteSpace=wrap;html=1;fontSize=9;fontColor=#000000;strokeColor=#000000;strokeWidth=2;fillColor=#FF0000;gradientColor=none;fontStyle=1;rotation=90;horizontal=0;" parent="1" vertex="1">
                    <mxGeometry x="1602.5" y="500.62" width="20" height="20" as="geometry"/>
                </mxCell>
                <mxCell id="M5zCR2oHDIOOvsmji_0k-251" value="5" style="rounded=0;whiteSpace=wrap;html=1;fontSize=9;fontColor=#000000;strokeColor=#000000;strokeWidth=2;fillColor=#FF0000;gradientColor=none;fontStyle=1;rotation=90;horizontal=0;" parent="1" vertex="1">
                    <mxGeometry x="1602.5" y="520.62" width="20" height="20" as="geometry"/>
                </mxCell>
                <mxCell id="M5zCR2oHDIOOvsmji_0k-252" value="6" style="rounded=0;whiteSpace=wrap;html=1;fontSize=9;fontColor=#000000;strokeColor=#000000;strokeWidth=2;fillColor=#FF0000;gradientColor=none;fontStyle=1;rotation=90;horizontal=0;" parent="1" vertex="1">
                    <mxGeometry x="1602.5" y="540.62" width="20" height="20" as="geometry"/>
                </mxCell>
                <mxCell id="M5zCR2oHDIOOvsmji_0k-253" value="7" style="rounded=0;whiteSpace=wrap;html=1;fontSize=9;fontColor=#000000;strokeColor=#000000;strokeWidth=2;fillColor=#FF0000;gradientColor=none;fontStyle=1;rotation=90;horizontal=0;" parent="1" vertex="1">
                    <mxGeometry x="1602.5" y="560.62" width="20" height="20" as="geometry"/>
                </mxCell>
                <mxCell id="M5zCR2oHDIOOvsmji_0k-254" value="C0" style="text;html=1;strokeColor=none;fillColor=none;align=center;verticalAlign=middle;whiteSpace=wrap;rounded=0;fontStyle=1" parent="1" vertex="1">
                    <mxGeometry x="1267.25" y="470.62" width="25.5" height="30" as="geometry"/>
                </mxCell>
                <mxCell id="M5zCR2oHDIOOvsmji_0k-255" value="F1" style="text;html=1;strokeColor=none;fillColor=none;align=center;verticalAlign=middle;whiteSpace=wrap;rounded=0;fontStyle=1" parent="1" vertex="1">
                    <mxGeometry x="1599.5" y="470.62" width="25.5" height="30" as="geometry"/>
                </mxCell>
                <mxCell id="M5zCR2oHDIOOvsmji_0k-256" value="F2" style="text;html=1;strokeColor=none;fillColor=none;align=center;verticalAlign=middle;whiteSpace=wrap;rounded=0;fontStyle=1" parent="1" vertex="1">
                    <mxGeometry x="1624.5" y="470.62" width="15.5" height="30" as="geometry"/>
                </mxCell>
                <mxCell id="M5zCR2oHDIOOvsmji_0k-257" value="F3" style="text;html=1;strokeColor=none;fillColor=none;align=center;verticalAlign=middle;whiteSpace=wrap;rounded=0;fontStyle=1" parent="1" vertex="1">
                    <mxGeometry x="1645.75" y="470.62" width="12.75" height="30" as="geometry"/>
                </mxCell>
                <mxCell id="M5zCR2oHDIOOvsmji_0k-258" value="C1" style="text;html=1;strokeColor=none;fillColor=none;align=center;verticalAlign=middle;whiteSpace=wrap;rounded=0;fontStyle=1" parent="1" vertex="1">
                    <mxGeometry x="1347.25" y="470.62" width="25.5" height="30" as="geometry"/>
                </mxCell>
                <mxCell id="M5zCR2oHDIOOvsmji_0k-259" value="C2" style="text;html=1;strokeColor=none;fillColor=none;align=center;verticalAlign=middle;whiteSpace=wrap;rounded=0;fontStyle=1" parent="1" vertex="1">
                    <mxGeometry x="1425" y="470.62" width="25.5" height="30" as="geometry"/>
                </mxCell>
                <mxCell id="M5zCR2oHDIOOvsmji_0k-260" value="C0" style="text;html=1;strokeColor=none;fillColor=none;align=center;verticalAlign=middle;whiteSpace=wrap;rounded=0;fontStyle=1" parent="1" vertex="1">
                    <mxGeometry x="1434.5" y="246.25" width="25.5" height="30" as="geometry"/>
                </mxCell>
                <mxCell id="M5zCR2oHDIOOvsmji_0k-261" value="C1" style="text;html=1;strokeColor=none;fillColor=none;align=center;verticalAlign=middle;whiteSpace=wrap;rounded=0;fontStyle=1" parent="1" vertex="1">
                    <mxGeometry x="1449" y="234.37" width="25.5" height="30" as="geometry"/>
                </mxCell>
                <mxCell id="M5zCR2oHDIOOvsmji_0k-262" value="C2" style="text;html=1;strokeColor=none;fillColor=none;align=center;verticalAlign=middle;whiteSpace=wrap;rounded=0;fontStyle=1" parent="1" vertex="1">
                    <mxGeometry x="1460" y="221.87" width="25.5" height="30" as="geometry"/>
                </mxCell>
                <mxCell id="M5zCR2oHDIOOvsmji_0k-263" value="F1" style="text;html=1;strokeColor=none;fillColor=none;align=center;verticalAlign=middle;whiteSpace=wrap;rounded=0;fontStyle=1" parent="1" vertex="1">
                    <mxGeometry x="1661.5" y="160" width="60" height="30" as="geometry"/>
                </mxCell>
                <mxCell id="M5zCR2oHDIOOvsmji_0k-264" value="F2" style="text;html=1;strokeColor=none;fillColor=none;align=center;verticalAlign=middle;whiteSpace=wrap;rounded=0;fontStyle=1" parent="1" vertex="1">
                    <mxGeometry x="1661.5" y="230" width="60" height="30" as="geometry"/>
                </mxCell>
                <mxCell id="M5zCR2oHDIOOvsmji_0k-265" value="F3" style="text;html=1;strokeColor=none;fillColor=none;align=center;verticalAlign=middle;whiteSpace=wrap;rounded=0;fontStyle=1" parent="1" vertex="1">
                    <mxGeometry x="1661.5" y="291.25" width="60" height="30" as="geometry"/>
                </mxCell>
                <mxCell id="M5zCR2oHDIOOvsmji_0k-266" value="F0" style="text;html=1;strokeColor=none;fillColor=none;align=center;verticalAlign=middle;whiteSpace=wrap;rounded=0;fontStyle=1" parent="1" vertex="1">
                    <mxGeometry x="1561.5" y="470.62" width="60" height="30" as="geometry"/>
                </mxCell>
                <mxCell id="M5zCR2oHDIOOvsmji_0k-267" value="x" style="ellipse;whiteSpace=wrap;html=1;aspect=fixed;strokeColor=#000000;fillColor=#FFFFFF;verticalAlign=middle;fontColor=#333333;strokeWidth=2;fontStyle=1" parent="1" vertex="1">
                    <mxGeometry x="1520.5" y="560.62" width="20" height="20" as="geometry"/>
                </mxCell>
                <mxCell id="M5zCR2oHDIOOvsmji_0k-268" value="GEMM" style="text;html=1;strokeColor=none;fillColor=none;align=center;verticalAlign=middle;whiteSpace=wrap;rounded=0;fontStyle=1;strokeWidth=2;" parent="1" vertex="1">
                    <mxGeometry x="1500" y="583.12" width="60" height="30" as="geometry"/>
                </mxCell>
                <mxCell id="M5zCR2oHDIOOvsmji_0k-269" value="" style="endArrow=none;dashed=1;html=1;dashPattern=1 3;strokeWidth=2;rounded=1;" parent="1" edge="1">
                    <mxGeometry width="50" height="50" relative="1" as="geometry">
                        <mxPoint x="1365" y="750.6199999999999" as="sourcePoint"/>
                        <mxPoint x="1365" y="670.6199999999999" as="targetPoint"/>
                    </mxGeometry>
                </mxCell>
                <mxCell id="M5zCR2oHDIOOvsmji_0k-270" value="4" style="rounded=0;whiteSpace=wrap;html=1;fontSize=9;fontColor=#000000;strokeColor=#000000;strokeWidth=2;fillColor=#00FF00;gradientColor=none;fontStyle=1;rotation=90;horizontal=0;" parent="1" vertex="1">
                    <mxGeometry x="1602.5" y="580.62" width="20" height="20" as="geometry"/>
                </mxCell>
                <mxCell id="M5zCR2oHDIOOvsmji_0k-271" value="5" style="rounded=0;whiteSpace=wrap;html=1;fontSize=9;fontColor=#000000;strokeColor=#000000;strokeWidth=2;fillColor=#00FF00;gradientColor=none;fontStyle=1;rotation=90;horizontal=0;" parent="1" vertex="1">
                    <mxGeometry x="1602.5" y="600.62" width="20" height="20" as="geometry"/>
                </mxCell>
                <mxCell id="M5zCR2oHDIOOvsmji_0k-272" value="6" style="rounded=0;whiteSpace=wrap;html=1;fontSize=9;fontColor=#000000;strokeColor=#000000;strokeWidth=2;fillColor=#00FF00;gradientColor=none;fontStyle=1;rotation=90;horizontal=0;" parent="1" vertex="1">
                    <mxGeometry x="1602.5" y="620.62" width="20" height="20" as="geometry"/>
                </mxCell>
                <mxCell id="M5zCR2oHDIOOvsmji_0k-273" value="7" style="rounded=0;whiteSpace=wrap;html=1;fontSize=9;fontColor=#000000;strokeColor=#000000;strokeWidth=2;fillColor=#00FF00;gradientColor=none;fontStyle=1;rotation=90;horizontal=0;" parent="1" vertex="1">
                    <mxGeometry x="1602.5" y="640.62" width="20" height="20" as="geometry"/>
                </mxCell>
                <mxCell id="M5zCR2oHDIOOvsmji_0k-274" value="4" style="rounded=0;whiteSpace=wrap;html=1;fontSize=9;fontColor=#000000;strokeColor=#000000;strokeWidth=2;fillColor=#0000FF;gradientColor=none;fontStyle=1;rotation=90;horizontal=0;" parent="1" vertex="1">
                    <mxGeometry x="1602.5" y="660.62" width="20" height="20" as="geometry"/>
                </mxCell>
                <mxCell id="M5zCR2oHDIOOvsmji_0k-275" value="5" style="rounded=0;whiteSpace=wrap;html=1;fontSize=9;fontColor=#000000;strokeColor=#000000;strokeWidth=2;fillColor=#0000FF;gradientColor=none;fontStyle=1;rotation=90;horizontal=0;" parent="1" vertex="1">
                    <mxGeometry x="1602.5" y="680.62" width="20" height="20" as="geometry"/>
                </mxCell>
                <mxCell id="M5zCR2oHDIOOvsmji_0k-276" value="6" style="rounded=0;whiteSpace=wrap;html=1;fontSize=9;fontColor=#000000;strokeColor=#000000;strokeWidth=2;fillColor=#0000FF;gradientColor=none;fontStyle=1;rotation=90;horizontal=0;" parent="1" vertex="1">
                    <mxGeometry x="1602.5" y="700.62" width="20" height="20" as="geometry"/>
                </mxCell>
                <mxCell id="M5zCR2oHDIOOvsmji_0k-277" value="7" style="rounded=0;whiteSpace=wrap;html=1;fontSize=9;fontColor=#000000;strokeColor=#000000;strokeWidth=2;fillColor=#0000FF;gradientColor=none;fontStyle=1;rotation=90;horizontal=0;" parent="1" vertex="1">
                    <mxGeometry x="1602.5" y="720.62" width="20" height="20" as="geometry"/>
                </mxCell>
                <mxCell id="M5zCR2oHDIOOvsmji_0k-278" value="8" style="rounded=0;whiteSpace=wrap;html=1;fontSize=9;fontColor=#000000;strokeColor=#000000;strokeWidth=2;fillColor=#FF0000;gradientColor=none;fontStyle=1;rotation=90;horizontal=0;" parent="1" vertex="1">
                    <mxGeometry x="1622" y="500.62" width="20" height="20" as="geometry"/>
                </mxCell>
                <mxCell id="M5zCR2oHDIOOvsmji_0k-279" value="9" style="rounded=0;whiteSpace=wrap;html=1;fontSize=9;fontColor=#000000;strokeColor=#000000;strokeWidth=2;fillColor=#FF0000;gradientColor=none;fontStyle=1;rotation=90;horizontal=0;" parent="1" vertex="1">
                    <mxGeometry x="1622" y="520.62" width="20" height="20" as="geometry"/>
                </mxCell>
                <mxCell id="M5zCR2oHDIOOvsmji_0k-280" value="10" style="rounded=0;whiteSpace=wrap;html=1;fontSize=9;fontColor=#000000;strokeColor=#000000;strokeWidth=2;fillColor=#FF0000;gradientColor=none;fontStyle=1;rotation=90;horizontal=0;" parent="1" vertex="1">
                    <mxGeometry x="1622" y="540.62" width="20" height="20" as="geometry"/>
                </mxCell>
                <mxCell id="M5zCR2oHDIOOvsmji_0k-281" value="11" style="rounded=0;whiteSpace=wrap;html=1;fontSize=9;fontColor=#000000;strokeColor=#000000;strokeWidth=2;fillColor=#FF0000;gradientColor=none;fontStyle=1;rotation=90;horizontal=0;" parent="1" vertex="1">
                    <mxGeometry x="1622" y="560.62" width="20" height="20" as="geometry"/>
                </mxCell>
                <mxCell id="M5zCR2oHDIOOvsmji_0k-282" value="12" style="rounded=0;whiteSpace=wrap;html=1;fontSize=9;fontColor=#000000;strokeColor=#000000;strokeWidth=2;fillColor=#FF0000;gradientColor=none;fontStyle=1;rotation=90;horizontal=0;" parent="1" vertex="1">
                    <mxGeometry x="1642" y="500.62" width="20" height="20" as="geometry"/>
                </mxCell>
                <mxCell id="M5zCR2oHDIOOvsmji_0k-283" value="13" style="rounded=0;whiteSpace=wrap;html=1;fontSize=9;fontColor=#000000;strokeColor=#000000;strokeWidth=2;fillColor=#FF0000;gradientColor=none;fontStyle=1;rotation=90;horizontal=0;" parent="1" vertex="1">
                    <mxGeometry x="1642" y="520.62" width="20" height="20" as="geometry"/>
                </mxCell>
                <mxCell id="M5zCR2oHDIOOvsmji_0k-284" value="14" style="rounded=0;whiteSpace=wrap;html=1;fontSize=9;fontColor=#000000;strokeColor=#000000;strokeWidth=2;fillColor=#FF0000;gradientColor=none;fontStyle=1;rotation=90;horizontal=0;" parent="1" vertex="1">
                    <mxGeometry x="1642" y="540.62" width="20" height="20" as="geometry"/>
                </mxCell>
                <mxCell id="M5zCR2oHDIOOvsmji_0k-285" value="15" style="rounded=0;whiteSpace=wrap;html=1;fontSize=9;fontColor=#000000;strokeColor=#000000;strokeWidth=2;fillColor=#FF0000;gradientColor=none;fontStyle=1;rotation=90;horizontal=0;" parent="1" vertex="1">
                    <mxGeometry x="1642" y="560.62" width="20" height="20" as="geometry"/>
                </mxCell>
                <mxCell id="M5zCR2oHDIOOvsmji_0k-286" value="8" style="rounded=0;whiteSpace=wrap;html=1;fontSize=9;fontColor=#000000;strokeColor=#000000;strokeWidth=2;fillColor=#00FF00;gradientColor=none;fontStyle=1;rotation=90;horizontal=0;" parent="1" vertex="1">
                    <mxGeometry x="1622" y="580.62" width="20" height="20" as="geometry"/>
                </mxCell>
                <mxCell id="M5zCR2oHDIOOvsmji_0k-287" value="9" style="rounded=0;whiteSpace=wrap;html=1;fontSize=9;fontColor=#000000;strokeColor=#000000;strokeWidth=2;fillColor=#00FF00;gradientColor=none;fontStyle=1;rotation=90;horizontal=0;" parent="1" vertex="1">
                    <mxGeometry x="1622" y="600.62" width="20" height="20" as="geometry"/>
                </mxCell>
                <mxCell id="M5zCR2oHDIOOvsmji_0k-288" value="10" style="rounded=0;whiteSpace=wrap;html=1;fontSize=9;fontColor=#000000;strokeColor=#000000;strokeWidth=2;fillColor=#00FF00;gradientColor=none;fontStyle=1;rotation=90;horizontal=0;" parent="1" vertex="1">
                    <mxGeometry x="1622" y="620.62" width="20" height="20" as="geometry"/>
                </mxCell>
                <mxCell id="M5zCR2oHDIOOvsmji_0k-289" value="11" style="rounded=0;whiteSpace=wrap;html=1;fontSize=9;fontColor=#000000;strokeColor=#000000;strokeWidth=2;fillColor=#00FF00;gradientColor=none;fontStyle=1;rotation=90;horizontal=0;" parent="1" vertex="1">
                    <mxGeometry x="1622" y="640.62" width="20" height="20" as="geometry"/>
                </mxCell>
                <mxCell id="M5zCR2oHDIOOvsmji_0k-290" value="12" style="rounded=0;whiteSpace=wrap;html=1;fontSize=9;fontColor=#000000;strokeColor=#000000;strokeWidth=2;fillColor=#00FF00;gradientColor=none;fontStyle=1;rotation=90;horizontal=0;" parent="1" vertex="1">
                    <mxGeometry x="1642" y="580.62" width="20" height="20" as="geometry"/>
                </mxCell>
                <mxCell id="M5zCR2oHDIOOvsmji_0k-291" style="edgeStyle=orthogonalEdgeStyle;rounded=1;orthogonalLoop=1;jettySize=auto;html=1;fontColor=none;strokeWidth=2;" parent="1" source="M5zCR2oHDIOOvsmji_0k-292" edge="1">
                    <mxGeometry relative="1" as="geometry">
                        <mxPoint x="1734.5" y="610.6199999999999" as="targetPoint"/>
                    </mxGeometry>
                </mxCell>
                <mxCell id="M5zCR2oHDIOOvsmji_0k-292" value="13" style="rounded=0;whiteSpace=wrap;html=1;fontSize=9;fontColor=#000000;strokeColor=#000000;strokeWidth=2;fillColor=#00FF00;gradientColor=none;fontStyle=1;rotation=90;horizontal=0;" parent="1" vertex="1">
                    <mxGeometry x="1642" y="600.62" width="20" height="20" as="geometry"/>
                </mxCell>
                <mxCell id="M5zCR2oHDIOOvsmji_0k-293" value="14" style="rounded=0;whiteSpace=wrap;html=1;fontSize=9;fontColor=#000000;strokeColor=#000000;strokeWidth=2;fillColor=#00FF00;gradientColor=none;fontStyle=1;rotation=90;horizontal=0;" parent="1" vertex="1">
                    <mxGeometry x="1642" y="620.62" width="20" height="20" as="geometry"/>
                </mxCell>
                <mxCell id="M5zCR2oHDIOOvsmji_0k-294" value="15" style="rounded=0;whiteSpace=wrap;html=1;fontSize=9;fontColor=#000000;strokeColor=#000000;strokeWidth=2;fillColor=#00FF00;gradientColor=none;fontStyle=1;rotation=90;horizontal=0;" parent="1" vertex="1">
                    <mxGeometry x="1642" y="640.62" width="20" height="20" as="geometry"/>
                </mxCell>
                <mxCell id="M5zCR2oHDIOOvsmji_0k-295" value="8" style="rounded=0;whiteSpace=wrap;html=1;fontSize=9;fontColor=#000000;strokeColor=#000000;strokeWidth=2;fillColor=#0000FF;gradientColor=none;fontStyle=1;rotation=90;horizontal=0;" parent="1" vertex="1">
                    <mxGeometry x="1622" y="660.62" width="20" height="20" as="geometry"/>
                </mxCell>
                <mxCell id="M5zCR2oHDIOOvsmji_0k-296" value="9" style="rounded=0;whiteSpace=wrap;html=1;fontSize=9;fontColor=#000000;strokeColor=#000000;strokeWidth=2;fillColor=#0000FF;gradientColor=none;fontStyle=1;rotation=90;horizontal=0;" parent="1" vertex="1">
                    <mxGeometry x="1622" y="680.62" width="20" height="20" as="geometry"/>
                </mxCell>
                <mxCell id="M5zCR2oHDIOOvsmji_0k-297" value="10" style="rounded=0;whiteSpace=wrap;html=1;fontSize=9;fontColor=#000000;strokeColor=#000000;strokeWidth=2;fillColor=#0000FF;gradientColor=none;fontStyle=1;rotation=90;horizontal=0;" parent="1" vertex="1">
                    <mxGeometry x="1622" y="700.62" width="20" height="20" as="geometry"/>
                </mxCell>
                <mxCell id="M5zCR2oHDIOOvsmji_0k-298" value="11" style="rounded=0;whiteSpace=wrap;html=1;fontSize=9;fontColor=#000000;strokeColor=#000000;strokeWidth=2;fillColor=#0000FF;gradientColor=none;fontStyle=1;rotation=90;horizontal=0;" parent="1" vertex="1">
                    <mxGeometry x="1622" y="720.62" width="20" height="20" as="geometry"/>
                </mxCell>
                <mxCell id="M5zCR2oHDIOOvsmji_0k-299" value="12" style="rounded=0;whiteSpace=wrap;html=1;fontSize=9;fontColor=#000000;strokeColor=#000000;strokeWidth=2;fillColor=#0000FF;gradientColor=none;fontStyle=1;rotation=90;horizontal=0;" parent="1" vertex="1">
                    <mxGeometry x="1642" y="660.62" width="20" height="20" as="geometry"/>
                </mxCell>
                <mxCell id="M5zCR2oHDIOOvsmji_0k-300" value="13" style="rounded=0;whiteSpace=wrap;html=1;fontSize=9;fontColor=#000000;strokeColor=#000000;strokeWidth=2;fillColor=#0000FF;gradientColor=none;fontStyle=1;rotation=90;horizontal=0;" parent="1" vertex="1">
                    <mxGeometry x="1642" y="680.62" width="20" height="20" as="geometry"/>
                </mxCell>
                <mxCell id="M5zCR2oHDIOOvsmji_0k-301" value="14" style="rounded=0;whiteSpace=wrap;html=1;fontSize=9;fontColor=#000000;strokeColor=#000000;strokeWidth=2;fillColor=#0000FF;gradientColor=none;fontStyle=1;rotation=90;horizontal=0;" parent="1" vertex="1">
                    <mxGeometry x="1642" y="700.62" width="20" height="20" as="geometry"/>
                </mxCell>
                <mxCell id="M5zCR2oHDIOOvsmji_0k-302" value="15" style="rounded=0;whiteSpace=wrap;html=1;fontSize=9;fontColor=#000000;strokeColor=#000000;strokeWidth=2;fillColor=#0000FF;gradientColor=none;fontStyle=1;rotation=90;horizontal=0;" parent="1" vertex="1">
                    <mxGeometry x="1642" y="720.62" width="20" height="20" as="geometry"/>
                </mxCell>
                <mxCell id="M5zCR2oHDIOOvsmji_0k-303" value="Expensive Lowering" style="text;html=1;strokeColor=none;fillColor=none;align=center;verticalAlign=middle;whiteSpace=wrap;rounded=0;fontStyle=1" parent="1" vertex="1">
                    <mxGeometry x="1279.5" y="400.62" width="60" height="30" as="geometry"/>
                </mxCell>
                <mxCell id="M5zCR2oHDIOOvsmji_0k-304" value="Expensive Lowering" style="text;html=1;strokeColor=none;fillColor=none;align=center;verticalAlign=middle;whiteSpace=wrap;rounded=0;fontStyle=1" parent="1" vertex="1">
                    <mxGeometry x="1544.5" y="400.62" width="60" height="30" as="geometry"/>
                </mxCell>
                <mxCell id="M5zCR2oHDIOOvsmji_0k-305" value="Lifting" style="text;html=1;strokeColor=none;fillColor=none;align=center;verticalAlign=middle;whiteSpace=wrap;rounded=0;fontStyle=1" parent="1" vertex="1">
                    <mxGeometry x="1837.5" y="400.62" width="60" height="30" as="geometry"/>
                </mxCell>
                <mxCell id="M5zCR2oHDIOOvsmji_0k-306" value="(im2col)" style="text;html=1;strokeColor=none;fillColor=none;align=center;verticalAlign=middle;whiteSpace=wrap;rounded=0;fontStyle=1" parent="1" vertex="1">
                    <mxGeometry x="1342.25" y="400.62" width="60" height="30" as="geometry"/>
                </mxCell>
                <mxCell id="M5zCR2oHDIOOvsmji_0k-307" value="0" style="rounded=0;whiteSpace=wrap;html=1;fontSize=9;fontColor=none;strokeColor=#000000;strokeWidth=1;fillColor=#FFFF66;gradientColor=none;fontStyle=1;rotation=90;horizontal=0;noLabel=1;" parent="1" vertex="1">
                    <mxGeometry x="1744" y="500.62" width="20" height="20" as="geometry"/>
                </mxCell>
                <mxCell id="M5zCR2oHDIOOvsmji_0k-308" value="1" style="rounded=0;whiteSpace=wrap;html=1;fontSize=9;fontColor=none;strokeColor=#000000;strokeWidth=1;fillColor=#FFFF66;gradientColor=none;fontStyle=1;rotation=90;horizontal=0;noLabel=1;" parent="1" vertex="1">
                    <mxGeometry x="1744" y="520.62" width="20" height="20" as="geometry"/>
                </mxCell>
                <mxCell id="M5zCR2oHDIOOvsmji_0k-309" value="2" style="rounded=0;whiteSpace=wrap;html=1;fontSize=9;fontColor=none;strokeColor=#000000;strokeWidth=1;fillColor=#FFFF66;gradientColor=none;fontStyle=1;rotation=90;horizontal=0;noLabel=1;" parent="1" vertex="1">
                    <mxGeometry x="1744" y="540.62" width="20" height="20" as="geometry"/>
                </mxCell>
                <mxCell id="M5zCR2oHDIOOvsmji_0k-310" value="3" style="rounded=0;whiteSpace=wrap;html=1;fontSize=9;fontColor=none;strokeColor=#000000;strokeWidth=1;fillColor=#FFFF66;gradientColor=none;fontStyle=1;rotation=90;horizontal=0;noLabel=1;" parent="1" vertex="1">
                    <mxGeometry x="1744" y="560.62" width="20" height="20" as="geometry"/>
                </mxCell>
                <mxCell id="M5zCR2oHDIOOvsmji_0k-311" value="0" style="rounded=0;whiteSpace=wrap;html=1;fontSize=9;fontColor=none;strokeColor=#000000;strokeWidth=1;fillColor=#FFFF66;gradientColor=none;fontStyle=1;rotation=90;horizontal=0;noLabel=1;" parent="1" vertex="1">
                    <mxGeometry x="1744" y="580.62" width="20" height="20" as="geometry"/>
                </mxCell>
                <mxCell id="M5zCR2oHDIOOvsmji_0k-312" value="1" style="rounded=0;whiteSpace=wrap;html=1;fontSize=9;fontColor=none;strokeColor=#000000;strokeWidth=1;fillColor=#FFFF66;gradientColor=none;fontStyle=1;rotation=90;horizontal=0;noLabel=1;" parent="1" vertex="1">
                    <mxGeometry x="1744" y="600.62" width="20" height="20" as="geometry"/>
                </mxCell>
                <mxCell id="M5zCR2oHDIOOvsmji_0k-313" value="2" style="rounded=0;whiteSpace=wrap;html=1;fontSize=9;fontColor=none;strokeColor=#000000;strokeWidth=1;fillColor=#FFFF66;gradientColor=none;fontStyle=1;rotation=90;horizontal=0;noLabel=1;" parent="1" vertex="1">
                    <mxGeometry x="1744" y="620.62" width="20" height="20" as="geometry"/>
                </mxCell>
                <mxCell id="M5zCR2oHDIOOvsmji_0k-314" value="3" style="rounded=0;whiteSpace=wrap;html=1;fontSize=9;fontColor=none;strokeColor=#000000;strokeWidth=1;fillColor=#FFFF66;gradientColor=none;fontStyle=1;rotation=90;horizontal=0;noLabel=1;" parent="1" vertex="1">
                    <mxGeometry x="1744" y="640.62" width="20" height="20" as="geometry"/>
                </mxCell>
                <mxCell id="M5zCR2oHDIOOvsmji_0k-315" value="4" style="rounded=0;whiteSpace=wrap;html=1;fontSize=9;fontColor=none;strokeColor=#000000;strokeWidth=1;fillColor=#7EA6E0;gradientColor=none;fontStyle=1;rotation=90;horizontal=0;noLabel=1;" parent="1" vertex="1">
                    <mxGeometry x="1764" y="500.62" width="20" height="20" as="geometry"/>
                </mxCell>
                <mxCell id="M5zCR2oHDIOOvsmji_0k-316" value="5" style="rounded=0;whiteSpace=wrap;html=1;fontSize=9;fontColor=none;strokeColor=#000000;strokeWidth=1;fillColor=#7EA6E0;gradientColor=none;fontStyle=1;rotation=90;horizontal=0;noLabel=1;" parent="1" vertex="1">
                    <mxGeometry x="1764" y="520.62" width="20" height="20" as="geometry"/>
                </mxCell>
                <mxCell id="M5zCR2oHDIOOvsmji_0k-317" value="6" style="rounded=0;whiteSpace=wrap;html=1;fontSize=9;fontColor=none;strokeColor=#000000;strokeWidth=1;fillColor=#7EA6E0;gradientColor=none;fontStyle=1;rotation=90;horizontal=0;noLabel=1;" parent="1" vertex="1">
                    <mxGeometry x="1764" y="540.62" width="20" height="20" as="geometry"/>
                </mxCell>
                <mxCell id="M5zCR2oHDIOOvsmji_0k-318" value="7" style="rounded=0;whiteSpace=wrap;html=1;fontSize=9;fontColor=none;strokeColor=#000000;strokeWidth=1;fillColor=#7EA6E0;gradientColor=none;fontStyle=1;rotation=90;horizontal=0;noLabel=1;" parent="1" vertex="1">
                    <mxGeometry x="1764" y="560.62" width="20" height="20" as="geometry"/>
                </mxCell>
                <mxCell id="M5zCR2oHDIOOvsmji_0k-319" value="4" style="rounded=0;whiteSpace=wrap;html=1;fontSize=9;fontColor=none;strokeColor=#000000;strokeWidth=1;fillColor=#7EA6E0;gradientColor=none;fontStyle=1;rotation=90;horizontal=0;noLabel=1;" parent="1" vertex="1">
                    <mxGeometry x="1764" y="580.62" width="20" height="20" as="geometry"/>
                </mxCell>
                <mxCell id="M5zCR2oHDIOOvsmji_0k-320" value="5" style="rounded=0;whiteSpace=wrap;html=1;fontSize=9;fontColor=none;strokeColor=#000000;strokeWidth=1;fillColor=#7EA6E0;gradientColor=none;fontStyle=1;rotation=90;horizontal=0;noLabel=1;" parent="1" vertex="1">
                    <mxGeometry x="1764" y="600.62" width="20" height="20" as="geometry"/>
                </mxCell>
                <mxCell id="M5zCR2oHDIOOvsmji_0k-321" value="6" style="rounded=0;whiteSpace=wrap;html=1;fontSize=9;fontColor=none;strokeColor=#000000;strokeWidth=1;fillColor=#7EA6E0;gradientColor=none;fontStyle=1;rotation=90;horizontal=0;noLabel=1;" parent="1" vertex="1">
                    <mxGeometry x="1764" y="620.62" width="20" height="20" as="geometry"/>
                </mxCell>
                <mxCell id="M5zCR2oHDIOOvsmji_0k-322" value="7" style="rounded=0;whiteSpace=wrap;html=1;fontSize=9;fontColor=none;strokeColor=#000000;strokeWidth=1;fillColor=#7EA6E0;gradientColor=none;fontStyle=1;rotation=90;horizontal=0;noLabel=1;" parent="1" vertex="1">
                    <mxGeometry x="1764" y="640.62" width="20" height="20" as="geometry"/>
                </mxCell>
                <mxCell id="M5zCR2oHDIOOvsmji_0k-323" value="8" style="rounded=0;whiteSpace=wrap;html=1;fontSize=9;fontColor=none;strokeColor=#000000;strokeWidth=1;fillColor=#FF3399;gradientColor=none;fontStyle=1;rotation=90;horizontal=0;noLabel=1;" parent="1" vertex="1">
                    <mxGeometry x="1783.5" y="500.62" width="20" height="20" as="geometry"/>
                </mxCell>
                <mxCell id="M5zCR2oHDIOOvsmji_0k-324" value="9" style="rounded=0;whiteSpace=wrap;html=1;fontSize=9;fontColor=none;strokeColor=#000000;strokeWidth=1;fillColor=#FF3399;gradientColor=none;fontStyle=1;rotation=90;horizontal=0;noLabel=1;" parent="1" vertex="1">
                    <mxGeometry x="1783.5" y="520.62" width="20" height="20" as="geometry"/>
                </mxCell>
                <mxCell id="M5zCR2oHDIOOvsmji_0k-325" value="10" style="rounded=0;whiteSpace=wrap;html=1;fontSize=9;fontColor=none;strokeColor=#000000;strokeWidth=1;fillColor=#FF3399;gradientColor=none;fontStyle=1;rotation=90;horizontal=0;noLabel=1;" parent="1" vertex="1">
                    <mxGeometry x="1783.5" y="540.62" width="20" height="20" as="geometry"/>
                </mxCell>
                <mxCell id="M5zCR2oHDIOOvsmji_0k-326" value="11" style="rounded=0;whiteSpace=wrap;html=1;fontSize=9;fontColor=none;strokeColor=#000000;strokeWidth=1;fillColor=#FF3399;gradientColor=none;fontStyle=1;rotation=90;horizontal=0;noLabel=1;" parent="1" vertex="1">
                    <mxGeometry x="1783.5" y="560.62" width="20" height="20" as="geometry"/>
                </mxCell>
                <mxCell id="M5zCR2oHDIOOvsmji_0k-327" value="12" style="rounded=0;whiteSpace=wrap;html=1;fontSize=9;fontColor=none;strokeColor=#000000;strokeWidth=1;fillColor=#D5E8D4;gradientColor=none;fontStyle=1;rotation=90;horizontal=0;noLabel=1;" parent="1" vertex="1">
                    <mxGeometry x="1803.5" y="500.62" width="20" height="20" as="geometry"/>
                </mxCell>
                <mxCell id="M5zCR2oHDIOOvsmji_0k-328" value="13" style="rounded=0;whiteSpace=wrap;html=1;fontSize=9;fontColor=none;strokeColor=#000000;strokeWidth=1;fillColor=#D5E8D4;gradientColor=none;fontStyle=1;rotation=90;horizontal=0;noLabel=1;" parent="1" vertex="1">
                    <mxGeometry x="1803.5" y="520.62" width="20" height="20" as="geometry"/>
                </mxCell>
                <mxCell id="M5zCR2oHDIOOvsmji_0k-329" value="14" style="rounded=0;whiteSpace=wrap;html=1;fontSize=9;fontColor=none;strokeColor=#000000;strokeWidth=1;fillColor=#D5E8D4;gradientColor=none;fontStyle=1;rotation=90;horizontal=0;noLabel=1;" parent="1" vertex="1">
                    <mxGeometry x="1803.5" y="540.62" width="20" height="20" as="geometry"/>
                </mxCell>
                <mxCell id="M5zCR2oHDIOOvsmji_0k-330" value="15" style="rounded=0;whiteSpace=wrap;html=1;fontSize=9;fontColor=none;strokeColor=#000000;strokeWidth=1;fillColor=#D5E8D4;gradientColor=none;fontStyle=1;rotation=90;horizontal=0;noLabel=1;" parent="1" vertex="1">
                    <mxGeometry x="1803.5" y="560.62" width="20" height="20" as="geometry"/>
                </mxCell>
                <mxCell id="M5zCR2oHDIOOvsmji_0k-331" value="8" style="rounded=0;whiteSpace=wrap;html=1;fontSize=9;fontColor=none;strokeColor=#000000;strokeWidth=1;fillColor=#FF3399;gradientColor=none;fontStyle=1;rotation=90;horizontal=0;noLabel=1;" parent="1" vertex="1">
                    <mxGeometry x="1783.5" y="580.62" width="20" height="20" as="geometry"/>
                </mxCell>
                <mxCell id="M5zCR2oHDIOOvsmji_0k-332" value="9" style="rounded=0;whiteSpace=wrap;html=1;fontSize=9;fontColor=none;strokeColor=#000000;strokeWidth=1;fillColor=#FF3399;gradientColor=none;fontStyle=1;rotation=90;horizontal=0;noLabel=1;" parent="1" vertex="1">
                    <mxGeometry x="1783.5" y="600.62" width="20" height="20" as="geometry"/>
                </mxCell>
                <mxCell id="M5zCR2oHDIOOvsmji_0k-333" value="10" style="rounded=0;whiteSpace=wrap;html=1;fontSize=9;fontColor=none;strokeColor=#000000;strokeWidth=1;fillColor=#FF3399;gradientColor=none;fontStyle=1;rotation=90;horizontal=0;noLabel=1;" parent="1" vertex="1">
                    <mxGeometry x="1783.5" y="620.62" width="20" height="20" as="geometry"/>
                </mxCell>
                <mxCell id="M5zCR2oHDIOOvsmji_0k-334" value="11" style="rounded=0;whiteSpace=wrap;html=1;fontSize=9;fontColor=none;strokeColor=#000000;strokeWidth=1;fillColor=#FF3399;gradientColor=none;fontStyle=1;rotation=90;horizontal=0;noLabel=1;" parent="1" vertex="1">
                    <mxGeometry x="1783.5" y="640.62" width="20" height="20" as="geometry"/>
                </mxCell>
                <mxCell id="M5zCR2oHDIOOvsmji_0k-335" value="12" style="rounded=0;whiteSpace=wrap;html=1;fontSize=9;fontColor=none;strokeColor=#000000;strokeWidth=1;fillColor=#D5E8D4;gradientColor=none;fontStyle=1;rotation=90;horizontal=0;noLabel=1;" parent="1" vertex="1">
                    <mxGeometry x="1803.5" y="580.62" width="20" height="20" as="geometry"/>
                </mxCell>
                <mxCell id="M5zCR2oHDIOOvsmji_0k-336" value="13" style="rounded=0;whiteSpace=wrap;html=1;fontSize=9;fontColor=none;strokeColor=#000000;strokeWidth=1;fillColor=#D5E8D4;gradientColor=none;fontStyle=1;rotation=90;horizontal=0;noLabel=1;" parent="1" vertex="1">
                    <mxGeometry x="1803.5" y="600.62" width="20" height="20" as="geometry"/>
                </mxCell>
                <mxCell id="M5zCR2oHDIOOvsmji_0k-337" value="14" style="rounded=0;whiteSpace=wrap;html=1;fontSize=9;fontColor=none;strokeColor=#000000;strokeWidth=1;fillColor=#D5E8D4;gradientColor=none;fontStyle=1;rotation=90;horizontal=0;noLabel=1;" parent="1" vertex="1">
                    <mxGeometry x="1803.5" y="620.62" width="20" height="20" as="geometry"/>
                </mxCell>
                <mxCell id="M5zCR2oHDIOOvsmji_0k-338" value="15" style="rounded=0;whiteSpace=wrap;html=1;fontSize=9;fontColor=none;strokeColor=#000000;strokeWidth=1;fillColor=#D5E8D4;gradientColor=none;fontStyle=1;rotation=90;horizontal=0;noLabel=1;" parent="1" vertex="1">
                    <mxGeometry x="1803.5" y="640.62" width="20" height="20" as="geometry"/>
                </mxCell>
                <mxCell id="M5zCR2oHDIOOvsmji_0k-339" value="" style="endArrow=none;dashed=1;html=1;dashPattern=1 3;strokeWidth=2;rounded=1;" parent="1" edge="1">
                    <mxGeometry width="50" height="50" relative="1" as="geometry">
                        <mxPoint x="1783.09" y="740.6199999999999" as="sourcePoint"/>
                        <mxPoint x="1783.09" y="660.6199999999999" as="targetPoint"/>
                    </mxGeometry>
                </mxCell>
                <mxCell id="2" value="" style="rounded=0;whiteSpace=wrap;html=1;fillColor=none;strokeColor=#00FF00;strokeWidth=2;" vertex="1" parent="1">
                    <mxGeometry x="1362" y="178.75" width="30" height="39" as="geometry"/>
                </mxCell>
                <mxCell id="3" value="" style="endArrow=classic;html=1;exitX=1;exitY=0.5;exitDx=0;exitDy=0;entryX=0;entryY=0;entryDx=30;entryDy=10;entryPerimeter=0;curved=1;strokeColor=#00FF00;" edge="1" parent="1" source="2" target="M5zCR2oHDIOOvsmji_0k-57">
                    <mxGeometry width="50" height="50" relative="1" as="geometry">
                        <mxPoint x="1352" y="198" as="sourcePoint"/>
                        <mxPoint x="1402" y="148" as="targetPoint"/>
                        <Array as="points">
                            <mxPoint x="1468" y="196"/>
                            <mxPoint x="1338" y="243"/>
                        </Array>
                    </mxGeometry>
                </mxCell>
                <mxCell id="4" value="" style="rounded=0;whiteSpace=wrap;html=1;fillColor=none;strokeColor=#00FF00;strokeWidth=2;" vertex="1" parent="1">
                    <mxGeometry x="1240" y="500.62" width="241" height="18.38" as="geometry"/>
                </mxCell>
                <mxCell id="5" value="" style="rounded=0;whiteSpace=wrap;html=1;fillColor=none;strokeColor=#00FF00;strokeWidth=2;" vertex="1" parent="1">
                    <mxGeometry x="1582.5" y="500.62" width="20.5" height="242" as="geometry"/>
                </mxCell>
                <mxCell id="6" value="" style="rounded=0;whiteSpace=wrap;html=1;fillColor=none;strokeColor=#00FF00;strokeWidth=2;" vertex="1" parent="1">
                    <mxGeometry x="1592" y="116.75" width="29" height="39.25" as="geometry"/>
                </mxCell>
            </root>
        </mxGraphModel>
    </diagram>
</mxfile>